<svg width="666" height="302" viewBox="0 0 666 302" fill="none" xmlns="http://www.w3.org/2000/svg">
<path fill-rule="evenodd" clip-rule="evenodd" d="M423.845 0.000488281C427.231 0.404227 430.595 0.785535 433.981 1.16684C445.699 2.46778 457.105 4.97993 467.865 9.9818C481.61 16.3968 491.635 26.6024 497.85 40.5089C504.734 55.8958 506.472 72.2248 506.694 89.0696H436.61C436.365 84.3818 436.566 79.6939 435.741 75.208C434.895 70.5425 433.514 65.8547 431.598 61.4809C424.959 46.565 403.707 49.6379 397.068 58.6996C387.979 71.1706 389.583 89.765 401.122 100.015C409.387 107.328 419.078 112.105 429.103 116.322C440.241 121.032 451.536 125.361 462.452 130.543C479.316 138.55 493.729 149.586 503.531 166.072C509.301 175.806 512.42 186.326 513.578 197.429C515.16 212.546 514.581 227.574 510.86 242.378C504.4 268.038 487.714 283.963 463.343 292.442C450.533 296.883 437.301 298.879 423.823 299.619C406.09 300.606 388.469 299.754 371.026 296.232C355.721 293.137 342.043 286.812 331.573 274.677C322.55 264.18 317.694 251.754 316.179 238.116C315.199 229.481 315.243 220.733 314.865 212.03C314.842 211.335 314.976 210.617 315.065 209.787H387.221C387.489 214.946 387.578 220.038 388.046 225.04C388.625 231.455 390.184 237.533 394.484 242.647C403.328 253.257 427.454 254.916 434.65 234.393C439.038 221.922 437.256 206.086 424.268 196.195C415.358 189.376 405.377 184.935 395.263 180.584C384.971 176.165 374.501 172.172 364.499 167.193C349.395 159.701 336.942 149.07 328.343 134.131C322.64 124.24 319.877 113.541 318.964 102.326C317.649 86.8042 318.474 71.4397 322.795 56.4117C331.016 27.993 349.929 10.7893 378.244 4.03787C385.573 2.28834 393.192 1.70516 400.655 0.561236C401.546 0.449086 402.392 0.202357 403.261 0.000488281H423.845Z" fill="#E42618"/>
<path fill-rule="evenodd" clip-rule="evenodd" d="M0.000244141 5.45557C1.15866 5.54529 2.31708 5.7023 3.49778 5.7023H71.7553H75.0746V295.362C74.0053 295.429 72.8692 295.542 71.7553 295.542C48.988 295.564 26.2429 295.564 3.49778 295.564C2.31708 295.564 1.15866 295.699 0.000244141 295.788V5.45557Z" fill="#E42618"/>
<path fill-rule="evenodd" clip-rule="evenodd" d="M300.037 295.4C299.057 295.445 298.188 295.535 297.297 295.535C271.656 295.557 245.993 295.512 220.329 295.603C218.035 295.625 217.322 294.75 216.742 292.686C200.614 234.974 184.396 177.24 168.178 119.55C167.911 118.608 167.621 117.711 167.331 116.791C167.086 116.813 166.841 116.858 166.596 116.881V295.333H96.2224V5.87507C97.1358 5.80778 98.0937 5.71806 99.0739 5.71806C125.161 5.69563 151.27 5.74049 177.379 5.65033C179.673 5.62834 180.43 6.45825 180.987 8.54423C196.648 66.3012 212.376 124.058 228.104 181.815C228.327 182.645 228.639 183.43 229.574 184.17C229.641 182.937 229.752 181.748 229.752 180.537C229.752 123.61 229.752 66.6825 229.775 9.73301C229.775 5.20217 229.351 5.71806 233.874 5.71806C254.837 5.69563 275.8 5.69563 296.762 5.69563H300.037V295.4Z" fill="#E42618"/>
<path fill-rule="evenodd" clip-rule="evenodd" d="M581 6.00049H530.68V220C547.521 148.444 564.205 77.4233 581 6.00049Z" fill="#E42618"/>
<path d="M649 285.494V300.409L598.091 283.605V264.713L649 247.909V262.824L612.111 273.96V274.358L649 285.494ZM628.915 288.278V260.239H639.256V288.278H628.915ZM623.247 209.41V222.038C622.468 222.104 621.797 222.378 621.234 222.858C620.67 223.339 620.239 223.961 619.941 224.723C619.626 225.469 619.469 226.297 619.469 227.209C619.469 228.385 619.684 229.396 620.115 230.241C620.546 231.086 621.159 231.501 621.955 231.484C622.518 231.501 623.04 231.26 623.521 230.763C624.001 230.25 624.374 229.264 624.639 227.805L626.031 220.05C626.744 216.139 627.945 213.23 629.636 211.324C631.309 209.402 633.555 208.433 636.372 208.416C639.09 208.433 641.451 209.245 643.457 210.852C645.445 212.443 646.987 214.622 648.08 217.39C649.157 220.141 649.696 223.281 649.696 226.811C649.696 232.644 648.503 237.21 646.116 240.508C643.73 243.789 640.581 245.62 636.67 246.001V232.379C637.88 232.197 638.817 231.6 639.479 230.589C640.126 229.562 640.449 228.269 640.449 226.711C640.449 225.452 640.233 224.416 639.803 223.604C639.372 222.776 638.759 222.353 637.963 222.336C637.234 222.353 636.654 222.718 636.223 223.43C635.792 224.126 635.444 225.22 635.179 226.711L633.986 233.473C633.306 237.367 632.014 240.284 630.108 242.223C628.202 244.162 625.75 245.123 622.75 245.106C620.098 245.123 617.853 244.427 616.013 243.018C614.157 241.593 612.749 239.563 611.788 236.928C610.81 234.277 610.321 231.136 610.321 227.507C610.321 221.988 611.464 217.638 613.751 214.456C616.038 211.258 619.204 209.576 623.247 209.41ZM610.818 180.389H620.761V205.545H610.818V180.389ZM601.67 200.673V186.951H636.72C637.25 186.951 637.698 186.86 638.062 186.678C638.411 186.495 638.676 186.214 638.858 185.833C639.024 185.451 639.107 184.963 639.107 184.366C639.107 183.952 639.057 183.471 638.957 182.924C638.858 182.361 638.775 181.946 638.709 181.681L648.354 179.693C648.536 180.306 648.76 181.184 649.025 182.328C649.29 183.454 649.464 184.797 649.547 186.355C649.713 189.503 649.389 192.146 648.577 194.284C647.749 196.422 646.448 198.03 644.675 199.107C642.902 200.184 640.681 200.706 638.013 200.673H601.67ZM632.295 150.031H610.818V136.309H649V149.335H641.741V149.733C644.178 150.561 646.083 152.011 647.459 154.083C648.818 156.154 649.497 158.615 649.497 161.466C649.497 164.134 648.884 166.47 647.658 168.475C646.431 170.464 644.741 172.014 642.587 173.124C640.432 174.218 637.963 174.773 635.179 174.789H610.818V161.068H632.295C634.185 161.051 635.668 160.571 636.745 159.626C637.822 158.665 638.361 157.323 638.361 155.599C638.361 154.456 638.121 153.47 637.64 152.641C637.143 151.796 636.447 151.15 635.552 150.702C634.64 150.238 633.555 150.014 632.295 150.031ZM649.696 110.936C649.696 115.079 648.876 118.625 647.235 121.575C645.578 124.525 643.274 126.787 640.325 128.361C637.358 129.935 633.92 130.722 630.009 130.722C626.098 130.722 622.667 129.935 619.717 128.361C616.751 126.787 614.447 124.525 612.807 121.575C611.15 118.625 610.321 115.079 610.321 110.936C610.321 107.19 611 103.95 612.359 101.216C613.702 98.4651 615.607 96.3356 618.077 94.8276C620.529 93.3195 623.413 92.5572 626.727 92.5407V105.268C624.722 105.45 623.197 106.03 622.153 107.008C621.093 107.969 620.562 109.212 620.562 110.737C620.562 111.93 620.911 112.974 621.607 113.869C622.286 114.764 623.322 115.46 624.714 115.957C626.089 116.454 627.821 116.703 629.909 116.703C631.997 116.703 633.737 116.454 635.129 115.957C636.505 115.46 637.54 114.764 638.237 113.869C638.916 112.974 639.256 111.93 639.256 110.737C639.256 109.726 639.024 108.831 638.56 108.052C638.079 107.273 637.383 106.643 636.472 106.163C635.544 105.666 634.417 105.367 633.091 105.268V92.5407C636.455 92.5904 639.388 93.361 641.891 94.8524C644.376 96.3439 646.299 98.4569 647.658 101.191C649.017 103.909 649.696 107.157 649.696 110.936ZM649.696 68.5838C649.696 72.6605 648.917 76.1738 647.359 79.1236C645.785 82.0568 643.531 84.3189 640.598 85.9098C637.648 87.4841 634.118 88.2713 630.009 88.2713C626.064 88.2713 622.617 87.4759 619.668 85.8849C616.718 84.294 614.423 82.0485 612.782 79.1484C611.141 76.2483 610.321 72.8262 610.321 68.8821C610.321 65.9986 610.768 63.3885 611.663 61.0518C612.558 58.7152 613.859 56.7183 615.566 55.0611C617.256 53.4039 619.311 52.1278 621.731 51.233C624.15 50.3381 626.876 49.8906 629.909 49.8906H633.091V83.9957H625.534V62.5185C624.44 62.535 623.479 62.8168 622.651 63.3636C621.805 63.8939 621.151 64.6148 620.687 65.5263C620.206 66.4212 619.966 67.4403 619.966 68.5838C619.966 69.6941 620.206 70.7133 620.687 71.6413C621.151 72.5694 621.797 73.3151 622.626 73.8786C623.454 74.4254 624.424 74.7154 625.534 74.7486H633.688C634.914 74.7486 636.008 74.4917 636.969 73.978C637.93 73.4643 638.684 72.7268 639.231 71.7656C639.778 70.8045 640.051 69.6444 640.051 68.2855C640.051 67.3409 639.919 66.4792 639.653 65.7003C639.388 64.9048 639.007 64.2254 638.51 63.6619C637.996 63.0985 637.383 62.6842 636.67 62.419V49.8906C639.322 50.3215 641.625 51.3407 643.581 52.9482C645.52 54.5556 647.028 56.6851 648.105 59.3366C649.166 61.9716 649.696 65.054 649.696 68.5838ZM623.247 9.3908V22.0186C622.468 22.0849 621.797 22.3584 621.234 22.839C620.67 23.3195 620.239 23.941 619.941 24.7033C619.626 25.449 619.469 26.2776 619.469 27.1891C619.469 28.3657 619.684 29.3766 620.115 30.2218C620.546 31.0669 621.159 31.4812 621.955 31.4647C622.518 31.4812 623.04 31.2409 623.521 30.7438C624.001 30.2301 624.374 29.244 624.639 27.7857L626.031 20.03C626.744 16.119 627.945 13.2106 629.636 11.3049C631.309 9.38252 633.555 8.41306 636.372 8.39648C639.09 8.41306 641.451 9.22508 643.457 10.8326C645.445 12.4235 646.987 14.6027 648.08 17.3702C649.157 20.1212 649.696 23.2615 649.696 26.7914C649.696 32.6247 648.503 37.1903 646.116 40.4881C643.73 43.7694 640.581 45.6006 636.67 45.9817V32.3596C637.88 32.1773 638.817 31.5807 639.479 30.5698C640.126 29.5423 640.449 28.2497 640.449 26.6919C640.449 25.4325 640.233 24.3967 639.803 23.5847C639.372 22.7561 638.759 22.3335 637.963 22.3169C637.234 22.3335 636.654 22.6981 636.223 23.4107C635.792 24.1067 635.444 25.2005 635.179 26.6919L633.986 33.4533C633.306 37.3477 632.014 40.2644 630.108 42.2033C628.202 44.1422 625.75 45.1034 622.75 45.0868C620.098 45.1034 617.853 44.4074 616.013 42.9988C614.157 41.5736 612.749 39.5435 611.788 36.9086C610.81 34.257 610.321 31.1167 610.321 27.4874C610.321 21.9689 611.464 17.6188 613.751 14.437C616.038 11.2386 619.204 9.55652 623.247 9.3908Z" fill="#2D333E"/>
</svg>
