<svg width="782" height="305" viewBox="0 0 782 305" fill="none" xmlns="http://www.w3.org/2000/svg">
<path fill-rule="evenodd" clip-rule="evenodd" d="M684.651 191.153C677.745 150.129 670.884 109.351 664 68.529C663.688 68.5514 663.332 68.5963 663.02 68.6187C656.159 109.374 649.32 150.151 642.436 191.153H684.651ZM547 298.772C548.715 291.594 550.364 284.731 551.99 277.867C565.557 221.164 579.102 164.439 592.646 107.714C600.243 75.886 607.884 44.0355 615.413 12.185C615.97 9.87477 616.795 9 619.29 9C648.74 9.11215 678.169 9.11215 707.619 9C710.27 9 711.139 9.8972 711.718 12.2972C721.631 53.3888 731.589 94.4579 741.592 135.55C754.513 188.664 767.456 241.8 780.377 294.936C780.666 296.058 780.867 297.224 781.179 298.727C780.087 298.794 779.151 298.907 778.216 298.907C753.555 298.929 728.894 298.884 704.233 298.974C702.028 298.974 701.181 298.458 700.847 296.08C698.664 281.097 696.258 266.114 694.075 251.131C693.763 248.91 693.094 248.103 690.733 248.103C672.577 248.215 654.443 248.193 636.287 248.125C634.193 248.125 633.369 248.619 633.035 250.884C630.829 266.271 628.379 281.568 626.151 296.933C625.817 299.153 624.503 298.929 623.055 298.929H580.26C570.235 298.929 560.21 298.929 550.186 298.907C549.228 298.907 548.27 298.839 547 298.772Z" fill="url(#paint0_linear_166_3)"/>
<path fill-rule="evenodd" clip-rule="evenodd" d="M423.845 5.00049C427.231 5.40423 430.595 5.78554 433.981 6.16684C445.699 7.46778 457.105 9.97993 467.865 14.9818C481.61 21.3968 491.635 31.6024 497.85 45.5089C504.734 60.8958 506.472 77.2248 506.694 94.0696H436.61C436.365 89.3818 436.566 84.6939 435.741 80.208C434.895 75.5425 433.514 70.8547 431.598 66.4809C424.959 51.565 403.707 54.6379 397.068 63.6996C387.979 76.1706 389.583 94.765 401.122 105.015C409.387 112.328 419.078 117.105 429.103 121.322C440.241 126.032 451.536 130.361 462.452 135.543C479.316 143.55 493.729 154.586 503.531 171.072C509.301 180.806 512.42 191.326 513.578 202.429C515.16 217.546 514.581 232.574 510.86 247.378C504.4 273.038 487.714 288.963 463.343 297.442C450.533 301.883 437.301 303.879 423.823 304.619C406.09 305.606 388.469 304.754 371.026 301.232C355.721 298.137 342.043 291.812 331.573 279.677C322.55 269.18 317.694 256.754 316.179 243.116C315.199 234.481 315.243 225.733 314.865 217.03C314.842 216.335 314.976 215.617 315.065 214.787H387.221C387.489 219.946 387.578 225.038 388.046 230.04C388.625 236.455 390.184 242.533 394.484 247.647C403.328 258.257 427.454 259.916 434.65 239.393C439.038 226.922 437.256 211.086 424.268 201.195C415.358 194.376 405.377 189.935 395.263 185.584C384.971 181.165 374.501 177.172 364.499 172.193C349.395 164.701 336.942 154.07 328.343 139.131C322.64 129.24 319.877 118.541 318.964 107.326C317.649 91.8042 318.474 76.4397 322.795 61.4117C331.016 32.993 349.929 15.7893 378.244 9.03787C385.573 7.28834 393.192 6.70516 400.655 5.56124C401.546 5.44909 402.392 5.20236 403.261 5.00049H423.845Z" fill="#DE7F92"/>
<path fill-rule="evenodd" clip-rule="evenodd" d="M0 10.4556C1.15842 10.5453 2.31684 10.7023 3.49753 10.7023H71.7551H75.0744V300.362C74.0051 300.429 72.869 300.542 71.7551 300.542C48.9877 300.564 26.2426 300.564 3.49753 300.564C2.31684 300.564 1.15842 300.699 0 300.788V10.4556Z" fill="#DE7F92"/>
<path fill-rule="evenodd" clip-rule="evenodd" d="M300.037 300.4C299.057 300.445 298.188 300.535 297.297 300.535C271.656 300.557 245.992 300.512 220.329 300.603C218.034 300.625 217.321 299.75 216.742 297.686C200.613 239.974 184.396 182.24 168.178 124.55C167.91 123.608 167.621 122.711 167.331 121.791C167.086 121.813 166.841 121.858 166.596 121.881V300.333H96.2222V10.8751C97.1355 10.8078 98.0935 10.7181 99.0737 10.7181C125.16 10.6956 151.269 10.7405 177.378 10.6503C179.673 10.6283 180.43 11.4582 180.987 13.5442C196.648 71.3012 212.376 129.058 228.104 186.815C228.326 187.645 228.638 188.43 229.574 189.17C229.641 187.937 229.752 186.748 229.752 185.537C229.752 128.61 229.752 71.6825 229.774 14.733C229.774 10.2022 229.351 10.7181 233.873 10.7181C254.836 10.6956 275.799 10.6956 296.762 10.6956H300.037V300.4Z" fill="#DE7F92"/>
<path fill-rule="evenodd" clip-rule="evenodd" d="M581 11.0005H530.68V225C547.52 153.444 564.204 82.4233 581 11.0005Z" fill="#DE7F92"/>
<path d="M733.405 259.563L736.597 268.357C733.455 269.714 731.321 271.409 730.195 273.442C729.074 275.496 728.864 277.934 729.565 280.756C730.307 283.744 731.543 285.823 733.273 286.991C735.03 288.175 736.824 288.539 738.654 288.084C739.829 287.792 740.743 287.222 741.396 286.371C742.076 285.537 742.524 284.249 742.739 282.509C742.876 281.321 742.984 278.665 743.063 274.54C743.16 269.234 743.932 265.336 745.376 262.847C747.41 259.346 750.392 257.107 754.324 256.131C756.855 255.502 759.38 255.574 761.899 256.346C764.446 257.134 766.604 258.628 768.374 260.829C770.15 263.051 771.476 265.928 772.354 269.461C773.787 275.23 773.497 279.906 771.485 283.491C769.477 287.096 766.21 289.539 761.681 290.819L758.935 281.648C761.39 280.617 763.008 279.305 763.788 277.713C764.596 276.137 764.675 274.042 764.026 271.43C763.356 268.733 762.233 266.771 760.657 265.543C759.644 264.751 758.494 264.515 757.206 264.835C756.031 265.127 755.14 265.837 754.532 266.964C753.761 268.398 753.36 271.516 753.329 276.317C753.298 281.118 752.928 284.749 752.22 287.211C751.54 289.688 750.277 291.799 748.432 293.545C746.614 295.306 744.134 296.576 740.993 297.356C738.146 298.064 735.298 297.994 732.449 297.149C729.6 296.303 727.233 294.694 725.348 292.322C723.486 289.944 722.059 286.759 721.067 282.766C719.624 276.956 719.962 272.134 722.08 268.301C724.222 264.463 727.997 261.55 733.405 259.563Z" fill="#DE7F92"/>
<path d="M707.82 225.671L757.51 213.328L765.976 247.408L757.57 249.496L751.41 224.696L740.394 227.432L746.126 250.508L737.754 252.588L732.022 229.512L718.497 232.872L724.876 258.549L716.504 260.629L707.82 225.671Z" fill="#DE7F92"/>
<path d="M722.506 206.708L721.657 216.472C715.891 216.44 711.286 215.143 707.843 212.581C704.427 210.034 702.107 206.294 700.881 201.361C699.365 195.258 700.368 189.683 703.888 184.636C707.432 179.584 713.112 176.087 720.931 174.145C729.201 172.09 736.109 172.472 741.655 175.288C747.224 178.099 750.807 182.724 752.407 189.161C753.803 194.784 753.141 199.797 750.421 204.201C748.816 206.819 746.155 209.144 742.437 211.177L737.783 202.58C740.224 201.397 741.974 199.753 743.035 197.647C744.101 195.563 744.327 193.288 743.714 190.821C742.868 187.414 740.858 184.973 737.685 183.498C734.517 182.043 729.972 182.052 724.052 183.522C717.77 185.083 713.555 187.239 711.408 189.992C709.261 192.744 708.603 195.793 709.434 199.137C710.046 201.603 711.421 203.514 713.557 204.87C715.693 206.226 718.676 206.838 722.506 206.708Z" fill="#DE7F92"/>
<path d="M735.717 125.598L738.023 134.878L711.11 141.563C706.839 142.624 704.1 143.427 702.891 143.971C700.956 144.873 699.552 146.221 698.677 148.014C697.831 149.822 697.73 152.021 698.374 154.613C699.028 157.247 700.097 159.089 701.582 160.141C703.089 161.187 704.724 161.635 706.486 161.486C708.249 161.337 711.096 160.774 715.027 159.797L742.516 152.969L744.822 162.249L718.722 168.732C712.757 170.214 708.48 171.01 705.893 171.12C703.305 171.23 700.995 170.817 698.963 169.879C696.936 168.962 695.133 167.501 693.556 165.497C692.001 163.486 690.772 160.663 689.868 157.026C688.778 152.636 688.492 149.168 689.011 146.62C689.557 144.088 690.537 141.947 691.95 140.198C693.385 138.443 695.011 137.118 696.828 136.223C699.525 134.91 703.653 133.563 709.211 132.182L735.717 125.598Z" fill="#DE7F92"/>
<path d="M679.501 111.665L720.785 101.41L717.397 87.7712L725.803 85.6831L734.876 122.209L726.47 124.297L723.09 110.69L681.806 120.945L679.501 111.665Z" fill="#DE7F92"/>
<path d="M682.514 54.6913L685.706 63.4851C682.564 64.8425 680.43 66.5376 679.304 68.5706C678.183 70.6244 677.972 73.0622 678.673 75.8839C679.416 78.8729 680.652 80.9515 682.382 82.1196C684.139 83.303 685.933 83.6674 687.763 83.2128C688.938 82.9209 689.852 82.3499 690.505 81.4999C691.185 80.6652 691.633 79.3777 691.848 77.6377C691.985 76.4497 692.093 73.7932 692.172 69.6682C692.269 64.3624 693.04 60.4648 694.485 57.9755C696.519 54.4746 699.501 52.2358 703.433 51.2591C705.964 50.6305 708.489 50.7023 711.008 51.4747C713.554 52.2623 715.713 53.7566 717.483 55.9577C719.259 58.1796 720.585 61.0568 721.463 64.5892C722.896 70.3581 722.606 75.0348 720.593 78.6194C718.586 82.2248 715.318 84.6676 710.79 85.9478L708.044 76.7768C710.499 75.7454 712.117 74.4338 712.897 72.8419C713.705 71.2653 713.784 69.1707 713.135 66.558C712.465 63.8616 711.342 61.8993 709.765 60.671C708.753 59.8794 707.603 59.6436 706.315 59.9636C705.14 60.2554 704.249 60.9651 703.641 62.0924C702.87 63.5267 702.469 66.6444 702.438 71.4455C702.407 76.2466 702.037 79.8779 701.329 82.3395C700.649 84.8164 699.386 86.9276 697.54 88.6732C695.723 90.434 693.243 91.7045 690.102 92.4848C687.255 93.192 684.407 93.1228 681.558 92.2771C678.709 91.4314 676.342 89.8224 674.457 87.4501C672.595 85.0721 671.168 81.887 670.176 77.8948C668.733 72.0841 669.071 67.2623 671.189 63.4295C673.331 59.591 677.105 56.6783 682.514 54.6913Z" fill="#DE7F92"/>
<path d="M666.338 58.6735L663.83 48.5779L674.12 41.761L669.556 23.3883L657.327 22.3984L654.882 12.5536L709.019 18.1129L711.456 27.9263L666.338 58.6735ZM681.753 36.7029L698.618 25.7893L678.637 24.1618L681.753 36.7029Z" fill="#DE7F92"/>
<defs>
<linearGradient id="paint0_linear_166_3" x1="475" y1="184" x2="664" y2="137" gradientUnits="userSpaceOnUse">
<stop offset="0.495" stop-color="#DE7F92"/>
<stop offset="1" stop-color="#DE7F92" stop-opacity="0.01"/>
</linearGradient>
</defs>
</svg>
