<svg width="131" height="166" viewBox="0 0 131 166" fill="none" xmlns="http://www.w3.org/2000/svg">
<path d="M88.9023 118.905H89.0023V118.805V96.938V96.838H88.9023H86.8633H86.7633V96.938V118.805V118.905H86.8633H88.9023Z" fill="#D1AEB6" stroke="#D1AEB6" stroke-width="0.2"/>
<path d="M74.4883 118.905H74.5883V118.805V96.938V96.838H74.4883H72.4492H72.3492V96.938V118.805V118.905H72.4492H74.4883Z" fill="#D1AEB6" stroke="#D1AEB6" stroke-width="0.2"/>
<path d="M45.6602 118.905H45.7602V118.805V96.938V96.838H45.6602H43.6211H43.5211V96.938V118.805V118.905H43.6211H45.6602Z" fill="#D1AEB6" stroke="#D1AEB6" stroke-width="0.2"/>
<path d="M31.2461 118.905H31.3461V118.805V96.938V96.838H31.2461H29.207H29.107V96.938V118.805V118.905H29.207H31.2461Z" fill="#D1AEB6" stroke="#D1AEB6" stroke-width="0.2"/>
<path d="M88.9023 86.9052H89.0023V86.8052V64.938V64.838H88.9023H86.8633H86.7633V64.938V86.8052V86.9052H86.8633H88.9023Z" fill="#D1AEB6" stroke="#D1AEB6" stroke-width="0.2"/>
<path d="M64.2109 84.6435H64.3109V84.5435V82.0005V81.9005H64.2109H53.5234H53.4234V82.0005V84.5435V84.6435H53.5234H64.2109Z" fill="#D1AEB6" stroke="#D1AEB6" stroke-width="0.2"/>
<path d="M49.7969 84.6435H49.8969V84.5435V82.0005V81.9005H49.7969H39.1094H39.0094V82.0005V84.5435V84.6435H39.1094H49.7969Z" fill="#D1AEB6" stroke="#D1AEB6" stroke-width="0.2"/>
<path d="M28.5742 83.5653H28.6455L28.6688 83.4979L35.0555 64.9706L35.1012 64.838H34.9609H31.9258H31.8545L31.8312 64.9054L25.4445 83.4327L25.3988 83.5653H25.5391H28.5742Z" fill="#D1AEB6" stroke="#D1AEB6" stroke-width="0.2"/>
<path d="M103.949 49.7081L103.949 49.7081C104.383 49.282 104.6 48.748 104.6 48.1133C104.6 47.4794 104.388 46.9422 103.962 46.5084C103.541 46.0708 102.962 45.857 102.238 45.857C101.507 45.857 100.923 46.0748 100.502 46.5208C100.085 46.9544 99.8766 47.4874 99.8766 48.1133C99.8766 48.74 100.089 49.2697 100.515 49.6957C100.944 50.1245 101.522 50.3344 102.238 50.3344C102.946 50.3344 103.52 50.1286 103.949 49.7081Z" fill="#D1AEB6" stroke="#D1AEB6" stroke-width="0.2"/>
<path d="M86.424 33.273L86.4242 33.273V33.2661V32.0005V31.9005H86.3242H83.9102H83.8102V32.0005V33.3247V38.188V38.288H83.9102H85.9844H86.0777L86.0841 38.1949L86.424 33.273ZM91.2404 33.2728L91.2406 33.2728V33.2661V32.0005V31.9005H91.1406H88.7383H88.6383V32.0005V33.2896V38.188V38.288H88.7383H90.8125H90.9061L90.9123 38.1946L91.2404 33.2728Z" fill="#D1AEB6" stroke="#D1AEB6" stroke-width="0.2"/>
<path d="M71.8164 51.5648H71.8877L71.9109 51.4974L78.2977 32.9701L78.3434 32.8375H78.2031H75.168H75.0967L75.0734 32.9049L68.6867 51.4323L68.641 51.5648H68.7812H71.8164Z" fill="#D1AEB6" stroke="#D1AEB6" stroke-width="0.2"/>
<path d="M64.2109 52.6435H64.3109V52.5435V50.0005V49.9005H64.2109H53.5234H53.4234V50.0005V52.5435V52.6435H53.5234H64.2109Z" fill="#D1AEB6" stroke="#D1AEB6" stroke-width="0.2"/>
<path d="M49.7969 52.6435H49.8969V52.5435V50.0005V49.9005H49.7969H39.1094H39.0094V50.0005V52.5435V52.6435H39.1094H49.7969Z" fill="#D1AEB6" stroke="#D1AEB6" stroke-width="0.2"/>
<path d="M31.8786 49.7081L31.8786 49.7081C32.3129 49.282 32.5297 48.748 32.5297 48.1133C32.5297 47.4794 32.3174 46.9422 31.892 46.5084C31.4707 46.0708 30.8916 45.857 30.168 45.857C29.4364 45.857 28.853 46.0748 28.4315 46.5208C28.0145 46.9544 27.8062 47.4874 27.8062 48.1133C27.8062 48.74 28.019 49.2697 28.4449 49.6957C28.8737 50.1245 29.4521 50.3344 30.168 50.3344C30.8758 50.3344 31.4499 50.1286 31.8786 49.7081Z" fill="#D1AEB6" stroke="#D1AEB6" stroke-width="0.2"/>
<path d="M115.059 19.5648H115.13L115.153 19.4974L121.54 0.97009L121.586 0.8375H121.445H118.41H118.339L118.316 0.90491L111.929 19.4323L111.883 19.5648H112.023H115.059Z" fill="#D1AEB6" stroke="#D1AEB6" stroke-width="0.2"/>
<path d="M100.645 19.5648H100.716L100.739 19.4974L107.126 0.97009L107.171 0.8375H107.031H103.996H103.925L103.902 0.90491L97.5148 19.4323L97.4691 19.5648H97.6094H100.645Z" fill="#D1AEB6" stroke="#D1AEB6" stroke-width="0.2"/>
<path d="M93.0391 20.6435H93.1391V20.5435V18.0005V17.9005H93.0391H82.3516H82.2516V18.0005V20.5435V20.6435H82.3516H93.0391Z" fill="#D1AEB6" stroke="#D1AEB6" stroke-width="0.2"/>
<path d="M69.0156 0.8375H68.8754L68.9211 0.97009L75.3078 19.4974L75.331 19.5648H75.4023H78.4492H78.5895L78.5438 19.4323L72.157 0.90491L72.1338 0.8375H72.0625H69.0156Z" fill="#D1AEB6" stroke="#D1AEB6" stroke-width="0.2"/>
<path d="M54.6016 0.8375H54.4613L54.507 0.97009L60.8937 19.4974L60.917 19.5648H60.9883H64.0352H64.1754L64.1297 19.4323L57.743 0.90491L57.7197 0.8375H57.6484H54.6016Z" fill="#D1AEB6" stroke="#D1AEB6" stroke-width="0.2"/>
<path d="M16.0273 156.428C16.0273 155.926 16.1934 155.503 16.5254 155.158C16.8574 154.807 17.3197 154.631 17.9121 154.631C18.498 154.631 18.957 154.803 19.2891 155.148C19.6276 155.493 19.7969 155.92 19.7969 156.428C19.7969 156.936 19.6243 157.359 19.2793 157.697C18.9408 158.029 18.485 158.195 17.9121 158.195C17.3327 158.195 16.8737 158.026 16.5352 157.688C16.1966 157.349 16.0273 156.929 16.0273 156.428ZM28.5957 159.221H26.0664L31.3887 143.781H33.918L28.5957 159.221ZM38.0293 147.434H43.7812V155.793H46.6426V158H38.0293V155.793H41.0371V149.65H38.0293V147.434ZM40.8418 144.729C40.8418 144.52 40.8776 144.328 40.9492 144.152C41.0273 143.97 41.1348 143.814 41.2715 143.684C41.4082 143.56 41.571 143.462 41.7598 143.391C41.9551 143.319 42.1699 143.283 42.4043 143.283C42.8861 143.283 43.2669 143.42 43.5469 143.693C43.8333 143.96 43.9766 144.305 43.9766 144.729C43.9766 145.152 43.8333 145.5 43.5469 145.773C43.2669 146.04 42.8861 146.174 42.4043 146.174C42.1699 146.174 41.9551 146.138 41.7598 146.066C41.571 145.995 41.4082 145.894 41.2715 145.764C41.1348 145.64 41.0273 145.49 40.9492 145.314C40.8776 145.132 40.8418 144.937 40.8418 144.729ZM49.3184 158V147.434H51.7793L51.9453 148.898C52.082 148.703 52.2318 148.524 52.3945 148.361C52.5573 148.199 52.7298 148.052 52.9121 147.922C53.2246 147.701 53.5664 147.531 53.9375 147.414C54.3086 147.297 54.7025 147.238 55.1191 147.238C55.653 147.238 56.1413 147.316 56.584 147.473C57.0267 147.629 57.4108 147.876 57.7363 148.215C58.0553 148.56 58.3027 149.003 58.4785 149.543C58.6608 150.077 58.752 150.728 58.752 151.496V158H56.0371V151.535C56.0371 151.118 55.9883 150.777 55.8906 150.51C55.7995 150.236 55.666 150.021 55.4902 149.865C55.3145 149.709 55.1029 149.602 54.8555 149.543C54.6081 149.478 54.3281 149.445 54.0156 149.445C53.7552 149.445 53.5143 149.475 53.293 149.533C53.0781 149.592 52.8861 149.68 52.7168 149.797C52.5801 149.882 52.4564 149.982 52.3457 150.1C52.235 150.217 52.1341 150.347 52.043 150.49V158H49.3184ZM68.1465 155.1C68.1465 154.937 68.1074 154.794 68.0293 154.67C67.9577 154.546 67.8275 154.429 67.6387 154.318C67.4434 154.214 67.1862 154.117 66.8672 154.025C66.5482 153.934 66.1445 153.843 65.6562 153.752C65.0378 153.628 64.4714 153.475 63.957 153.293C63.4492 153.104 63.013 152.876 62.6484 152.609C62.2839 152.349 61.9974 152.046 61.7891 151.701C61.5872 151.356 61.4863 150.959 61.4863 150.51C61.4863 150.074 61.5905 149.657 61.7988 149.26C62.0072 148.863 62.3066 148.514 62.6973 148.215C63.0879 147.915 63.5632 147.678 64.123 147.502C64.6829 147.326 65.3145 147.238 66.0176 147.238C66.7533 147.238 67.4141 147.326 68 147.502C68.5859 147.671 69.084 147.906 69.4941 148.205C69.8978 148.511 70.207 148.872 70.4219 149.289C70.6367 149.706 70.7441 150.158 70.7441 150.646H68.0293C68.0293 150.471 68 150.308 67.9414 150.158C67.8828 150.002 67.7949 149.862 67.6777 149.738C67.515 149.576 67.2936 149.445 67.0137 149.348C66.7402 149.25 66.4082 149.201 66.0176 149.201C65.6855 149.201 65.3958 149.234 65.1484 149.299C64.901 149.364 64.6992 149.455 64.543 149.572C64.3997 149.676 64.2891 149.8 64.2109 149.943C64.1393 150.08 64.1035 150.227 64.1035 150.383C64.1035 150.539 64.1361 150.686 64.2012 150.822C64.2663 150.952 64.3835 151.07 64.5527 151.174C64.7155 151.285 64.9401 151.385 65.2266 151.477C65.513 151.561 65.8776 151.636 66.3203 151.701C66.9583 151.805 67.5508 151.939 68.0977 152.102C68.6445 152.264 69.1165 152.473 69.5137 152.727C69.9108 152.987 70.2201 153.303 70.4414 153.674C70.6693 154.038 70.7832 154.475 70.7832 154.982C70.7832 155.451 70.6693 155.884 70.4414 156.281C70.2201 156.672 69.9043 157.01 69.4941 157.297C69.0775 157.583 68.5762 157.808 67.9902 157.971C67.4043 158.127 66.75 158.205 66.0273 158.205C65.2331 158.205 64.5299 158.101 63.918 157.893C63.3125 157.684 62.8047 157.411 62.3945 157.072C61.9844 156.74 61.6719 156.363 61.457 155.939C61.2487 155.51 61.1445 155.08 61.1445 154.65H63.7324C63.752 154.937 63.8301 155.184 63.9668 155.393C64.1035 155.594 64.2793 155.757 64.4941 155.881C64.709 156.011 64.9531 156.105 65.2266 156.164C65.5065 156.223 65.793 156.252 66.0859 156.252C66.4375 156.252 66.7435 156.223 67.0039 156.164C67.2708 156.099 67.4889 156.014 67.6582 155.91C67.821 155.806 67.9414 155.686 68.0195 155.549C68.1042 155.412 68.1465 155.262 68.1465 155.1ZM79.9434 158C79.8783 157.87 79.8229 157.72 79.7773 157.551C79.7318 157.382 79.6927 157.202 79.6602 157.014C79.5104 157.176 79.3379 157.329 79.1426 157.473C78.9473 157.616 78.7324 157.74 78.498 157.844C78.2572 157.954 77.9935 158.039 77.707 158.098C77.4206 158.163 77.1113 158.195 76.7793 158.195C76.2389 158.195 75.7409 158.117 75.2852 157.961C74.8359 157.805 74.4486 157.587 74.123 157.307C73.7975 157.027 73.5436 156.695 73.3613 156.311C73.179 155.92 73.0879 155.497 73.0879 155.041C73.0879 154.455 73.2018 153.938 73.4297 153.488C73.6576 153.033 73.9993 152.658 74.4551 152.365C74.8652 152.098 75.3698 151.896 75.9688 151.76C76.5742 151.617 77.2676 151.545 78.0488 151.545H79.5625V150.92C79.5625 150.673 79.5234 150.451 79.4453 150.256C79.3672 150.054 79.25 149.882 79.0938 149.738C78.931 149.589 78.7259 149.475 78.4785 149.396C78.2376 149.312 77.9544 149.27 77.6289 149.27C77.3424 149.27 77.0951 149.305 76.8867 149.377C76.6784 149.442 76.5091 149.536 76.3789 149.66C76.2617 149.771 76.1738 149.904 76.1152 150.061C76.0632 150.217 76.0371 150.389 76.0371 150.578H73.3223C73.3223 150.129 73.4199 149.702 73.6152 149.299C73.8171 148.895 74.11 148.54 74.4941 148.234C74.8717 147.928 75.334 147.688 75.8809 147.512C76.4342 147.329 77.0658 147.238 77.7754 147.238C78.4134 147.238 79.0059 147.316 79.5527 147.473C80.1061 147.629 80.5846 147.86 80.9883 148.166C81.3919 148.472 81.7077 148.859 81.9355 149.328C82.1634 149.79 82.2773 150.327 82.2773 150.939V155.471C82.2773 156.037 82.3132 156.506 82.3848 156.877C82.4564 157.248 82.5605 157.567 82.6973 157.834V158H79.9434ZM77.3555 156.096C77.6289 156.096 77.8828 156.063 78.1172 155.998C78.3516 155.933 78.5632 155.848 78.752 155.744C78.9408 155.64 79.1035 155.523 79.2402 155.393C79.377 155.256 79.4844 155.119 79.5625 154.982V153.166H78.1758C77.7526 153.166 77.3913 153.208 77.0918 153.293C76.7923 153.371 76.5482 153.482 76.3594 153.625C76.1706 153.775 76.0306 153.954 75.9395 154.162C75.8483 154.364 75.8027 154.585 75.8027 154.826C75.8027 155.015 75.8353 155.191 75.9004 155.354C75.972 155.51 76.0729 155.643 76.2031 155.754C76.3333 155.858 76.4928 155.943 76.6816 156.008C76.877 156.066 77.1016 156.096 77.3555 156.096ZM88.0977 156.428C88.0977 155.926 88.2637 155.503 88.5957 155.158C88.9277 154.807 89.39 154.631 89.9824 154.631C90.5684 154.631 91.0273 154.803 91.3594 155.148C91.6979 155.493 91.8672 155.92 91.8672 156.428C91.8672 156.936 91.6947 157.359 91.3496 157.697C91.0111 158.029 90.5553 158.195 89.9824 158.195C89.403 158.195 88.944 158.026 88.6055 157.688C88.2669 157.349 88.0977 156.929 88.0977 156.428ZM104.182 155.1C104.182 154.937 104.143 154.794 104.064 154.67C103.993 154.546 103.863 154.429 103.674 154.318C103.479 154.214 103.221 154.117 102.902 154.025C102.583 153.934 102.18 153.843 101.691 153.752C101.073 153.628 100.507 153.475 99.9922 153.293C99.4844 153.104 99.0482 152.876 98.6836 152.609C98.319 152.349 98.0326 152.046 97.8242 151.701C97.6224 151.356 97.5215 150.959 97.5215 150.51C97.5215 150.074 97.6257 149.657 97.834 149.26C98.0423 148.863 98.3418 148.514 98.7324 148.215C99.123 147.915 99.5983 147.678 100.158 147.502C100.718 147.326 101.35 147.238 102.053 147.238C102.788 147.238 103.449 147.326 104.035 147.502C104.621 147.671 105.119 147.906 105.529 148.205C105.933 148.511 106.242 148.872 106.457 149.289C106.672 149.706 106.779 150.158 106.779 150.646H104.064C104.064 150.471 104.035 150.308 103.977 150.158C103.918 150.002 103.83 149.862 103.713 149.738C103.55 149.576 103.329 149.445 103.049 149.348C102.775 149.25 102.443 149.201 102.053 149.201C101.721 149.201 101.431 149.234 101.184 149.299C100.936 149.364 100.734 149.455 100.578 149.572C100.435 149.676 100.324 149.8 100.246 149.943C100.174 150.08 100.139 150.227 100.139 150.383C100.139 150.539 100.171 150.686 100.236 150.822C100.301 150.952 100.419 151.07 100.588 151.174C100.751 151.285 100.975 151.385 101.262 151.477C101.548 151.561 101.913 151.636 102.355 151.701C102.993 151.805 103.586 151.939 104.133 152.102C104.68 152.264 105.152 152.473 105.549 152.727C105.946 152.987 106.255 153.303 106.477 153.674C106.704 154.038 106.818 154.475 106.818 154.982C106.818 155.451 106.704 155.884 106.477 156.281C106.255 156.672 105.939 157.01 105.529 157.297C105.113 157.583 104.611 157.808 104.025 157.971C103.439 158.127 102.785 158.205 102.062 158.205C101.268 158.205 100.565 158.101 99.9531 157.893C99.3477 157.684 98.8398 157.411 98.4297 157.072C98.0195 156.74 97.707 156.363 97.4922 155.939C97.2839 155.51 97.1797 155.08 97.1797 154.65H99.7676C99.7871 154.937 99.8652 155.184 100.002 155.393C100.139 155.594 100.314 155.757 100.529 155.881C100.744 156.011 100.988 156.105 101.262 156.164C101.542 156.223 101.828 156.252 102.121 156.252C102.473 156.252 102.779 156.223 103.039 156.164C103.306 156.099 103.524 156.014 103.693 155.91C103.856 155.806 103.977 155.686 104.055 155.549C104.139 155.412 104.182 155.262 104.182 155.1ZM112.092 148.889C112.229 148.687 112.378 148.501 112.541 148.332C112.71 148.156 112.886 148.003 113.068 147.873C113.348 147.671 113.658 147.515 113.996 147.404C114.335 147.294 114.693 147.238 115.07 147.238C115.624 147.238 116.132 147.323 116.594 147.492C117.056 147.655 117.453 147.912 117.785 148.264C118.117 148.615 118.374 149.068 118.557 149.621C118.745 150.168 118.84 150.829 118.84 151.604V158H116.125V151.584C116.125 151.206 116.076 150.881 115.979 150.607C115.887 150.334 115.754 150.113 115.578 149.943C115.402 149.774 115.191 149.65 114.943 149.572C114.696 149.488 114.416 149.445 114.104 149.445C113.863 149.445 113.638 149.468 113.43 149.514C113.221 149.559 113.033 149.628 112.863 149.719C112.707 149.797 112.564 149.891 112.434 150.002C112.31 150.113 112.196 150.236 112.092 150.373V158H109.377V143H112.092V148.889Z" fill="#D1AEB6"/>
</svg>
