<svg width="200" height="200" viewBox="0 0 200 200" fill="none" xmlns="http://www.w3.org/2000/svg">
<rect width="200" height="200" rx="12" fill="#2D333E"/>
<mask id="path-2-outside-1_502_41" maskUnits="userSpaceOnUse" x="42" y="38" width="115" height="87" fill="black">
<rect fill="white" x="42" y="38" width="115" height="87"/>
<path d="M44.6875 38.5625H49.7656L60.4102 69.4414H55.332L44.6875 38.5625ZM68.7109 38.5625H73.7891L84.4336 69.4414H79.3555L68.7109 38.5625ZM108.75 71.2383H90.9375V67H108.75V71.2383ZM121.426 69.4414H116.367L127.012 38.5625H132.07L121.426 69.4414ZM145.449 69.4414H140.391L151.035 38.5625H156.094L145.449 69.4414ZM60.7031 124.238H42.8906V120H60.7031V124.238ZM73.3789 122.441H68.3203L78.9648 91.5625H84.0234L73.3789 122.441ZM97.5586 92.1094L96.9922 100.312H93.5352V92.207V90H97.5586V92.1094ZM105.586 92.1094L105.039 100.312H101.582V92.1484V90H105.586V92.1094ZM120.312 116.855C120.312 115.853 120.645 115.007 121.309 114.316C121.973 113.613 122.897 113.262 124.082 113.262C125.254 113.262 126.172 113.607 126.836 114.297C127.513 114.987 127.852 115.84 127.852 116.855C127.852 117.871 127.507 118.717 126.816 119.395C126.139 120.059 125.228 120.391 124.082 120.391C122.923 120.391 122.005 120.052 121.328 119.375C120.651 118.698 120.312 117.858 120.312 116.855Z"/>
</mask>
<path d="M44.6875 38.5625H49.7656L60.4102 69.4414H55.332L44.6875 38.5625ZM68.7109 38.5625H73.7891L84.4336 69.4414H79.3555L68.7109 38.5625ZM108.75 71.2383H90.9375V67H108.75V71.2383ZM121.426 69.4414H116.367L127.012 38.5625H132.07L121.426 69.4414ZM145.449 69.4414H140.391L151.035 38.5625H156.094L145.449 69.4414ZM60.7031 124.238H42.8906V120H60.7031V124.238ZM73.3789 122.441H68.3203L78.9648 91.5625H84.0234L73.3789 122.441ZM97.5586 92.1094L96.9922 100.312H93.5352V92.207V90H97.5586V92.1094ZM105.586 92.1094L105.039 100.312H101.582V92.1484V90H105.586V92.1094ZM120.312 116.855C120.312 115.853 120.645 115.007 121.309 114.316C121.973 113.613 122.897 113.262 124.082 113.262C125.254 113.262 126.172 113.607 126.836 114.297C127.513 114.987 127.852 115.84 127.852 116.855C127.852 117.871 127.507 118.717 126.816 119.395C126.139 120.059 125.228 120.391 124.082 120.391C122.923 120.391 122.005 120.052 121.328 119.375C120.651 118.698 120.312 117.858 120.312 116.855Z" fill="#DE7F92"/>
<path d="M44.6875 38.5625V38.0625H43.9863L44.2148 38.7254L44.6875 38.5625ZM49.7656 38.5625L50.2383 38.3996L50.1221 38.0625H49.7656V38.5625ZM60.4102 69.4414V69.9414H61.1114L60.8829 69.2785L60.4102 69.4414ZM55.332 69.4414L54.8593 69.6044L54.9755 69.9414H55.332V69.4414ZM44.6875 39.0625H49.7656V38.0625H44.6875V39.0625ZM49.2929 38.7254L59.9375 69.6044L60.8829 69.2785L50.2383 38.3996L49.2929 38.7254ZM60.4102 68.9414H55.332V69.9414H60.4102V68.9414ZM55.8047 69.2785L45.1602 38.3996L44.2148 38.7254L54.8593 69.6044L55.8047 69.2785ZM68.7109 38.5625V38.0625H68.0097L68.2382 38.7254L68.7109 38.5625ZM73.7891 38.5625L74.2618 38.3996L74.1456 38.0625H73.7891V38.5625ZM84.4336 69.4414V69.9414H85.1348L84.9063 69.2785L84.4336 69.4414ZM79.3555 69.4414L78.8828 69.6044L78.999 69.9414H79.3555V69.4414ZM68.7109 39.0625H73.7891V38.0625H68.7109V39.0625ZM73.3164 38.7254L83.9609 69.6044L84.9063 69.2785L74.2618 38.3996L73.3164 38.7254ZM84.4336 68.9414H79.3555V69.9414H84.4336V68.9414ZM79.8282 69.2785L69.1836 38.3996L68.2382 38.7254L78.8828 69.6044L79.8282 69.2785ZM108.75 71.2383V71.7383H109.25V71.2383H108.75ZM90.9375 71.2383H90.4375V71.7383H90.9375V71.2383ZM90.9375 67V66.5H90.4375V67H90.9375ZM108.75 67H109.25V66.5H108.75V67ZM108.75 70.7383H90.9375V71.7383H108.75V70.7383ZM91.4375 71.2383V67H90.4375V71.2383H91.4375ZM90.9375 67.5H108.75V66.5H90.9375V67.5ZM108.25 67V71.2383H109.25V67H108.25ZM121.426 69.4414V69.9414H121.782L121.898 69.6044L121.426 69.4414ZM116.367 69.4414L115.894 69.2785L115.666 69.9414H116.367V69.4414ZM127.012 38.5625V38.0625H126.655L126.539 38.3996L127.012 38.5625ZM132.07 38.5625L132.543 38.7254L132.772 38.0625H132.07V38.5625ZM121.426 68.9414H116.367V69.9414H121.426V68.9414ZM116.84 69.6044L127.484 38.7254L126.539 38.3996L115.894 69.2785L116.84 69.6044ZM127.012 39.0625H132.07V38.0625H127.012V39.0625ZM131.598 38.3996L120.953 69.2785L121.898 69.6044L132.543 38.7254L131.598 38.3996ZM145.449 69.4414V69.9414H145.806L145.922 69.6044L145.449 69.4414ZM140.391 69.4414L139.918 69.2785L139.689 69.9414H140.391V69.4414ZM151.035 38.5625V38.0625H150.679L150.562 38.3996L151.035 38.5625ZM156.094 38.5625L156.566 38.7254L156.795 38.0625H156.094V38.5625ZM145.449 68.9414H140.391V69.9414H145.449V68.9414ZM140.863 69.6044L151.508 38.7254L150.562 38.3996L139.918 69.2785L140.863 69.6044ZM151.035 39.0625H156.094V38.0625H151.035V39.0625ZM155.621 38.3996L144.977 69.2785L145.922 69.6044L156.566 38.7254L155.621 38.3996ZM60.7031 124.238V124.738H61.2031V124.238H60.7031ZM42.8906 124.238H42.3906V124.738H42.8906V124.238ZM42.8906 120V119.5H42.3906V120H42.8906ZM60.7031 120H61.2031V119.5H60.7031V120ZM60.7031 123.738H42.8906V124.738H60.7031V123.738ZM43.3906 124.238V120H42.3906V124.238H43.3906ZM42.8906 120.5H60.7031V119.5H42.8906V120.5ZM60.2031 120V124.238H61.2031V120H60.2031ZM73.3789 122.441V122.941H73.7354L73.8516 122.604L73.3789 122.441ZM68.3203 122.441L67.8476 122.278L67.6191 122.941H68.3203V122.441ZM78.9648 91.5625V91.0625H78.6083L78.4921 91.3996L78.9648 91.5625ZM84.0234 91.5625L84.4961 91.7254L84.7247 91.0625H84.0234V91.5625ZM73.3789 121.941H68.3203V122.941H73.3789V121.941ZM68.793 122.604L79.4375 91.7254L78.4921 91.3996L67.8476 122.278L68.793 122.604ZM78.9648 92.0625H84.0234V91.0625H78.9648V92.0625ZM83.5507 91.3996L72.9062 122.278L73.8516 122.604L84.4961 91.7254L83.5507 91.3996ZM97.5586 92.1094L98.0574 92.1438L98.0586 92.1266V92.1094H97.5586ZM96.9922 100.312V100.812H97.4589L97.491 100.347L96.9922 100.312ZM93.5352 100.312H93.0352V100.812H93.5352V100.312ZM93.5352 90V89.5H93.0352V90H93.5352ZM97.5586 90H98.0586V89.5H97.5586V90ZM105.586 92.1094L106.085 92.1426L106.086 92.126V92.1094H105.586ZM105.039 100.312V100.812H105.507L105.538 100.346L105.039 100.312ZM101.582 100.312H101.082V100.812H101.582V100.312ZM101.582 90V89.5H101.082V90H101.582ZM105.586 90H106.086V89.5H105.586V90ZM97.0598 92.0749L96.4934 100.278L97.491 100.347L98.0574 92.1438L97.0598 92.0749ZM96.9922 99.8125H93.5352V100.812H96.9922V99.8125ZM94.0352 100.312V92.207H93.0352V100.312H94.0352ZM94.0352 92.207V90H93.0352V92.207H94.0352ZM93.5352 90.5H97.5586V89.5H93.5352V90.5ZM97.0586 90V92.1094H98.0586V90H97.0586ZM105.087 92.0761L104.54 100.279L105.538 100.346L106.085 92.1426L105.087 92.0761ZM105.039 99.8125H101.582V100.812H105.039V99.8125ZM102.082 100.312V92.1484H101.082V100.312H102.082ZM102.082 92.1484V90H101.082V92.1484H102.082ZM101.582 90.5H105.586V89.5H101.582V90.5ZM105.086 90V92.1094H106.086V90H105.086ZM121.309 114.316L121.669 114.663L121.672 114.66L121.309 114.316ZM126.836 114.297L126.476 114.644L126.479 114.647L126.836 114.297ZM126.816 119.395L127.167 119.752L127.167 119.751L126.816 119.395ZM120.812 116.855C120.812 115.975 121.099 115.255 121.669 114.663L120.948 113.97C120.19 114.758 119.812 115.73 119.812 116.855H120.812ZM121.672 114.66C122.221 114.078 123.001 113.762 124.082 113.762V112.762C122.793 112.762 121.724 113.148 120.945 113.973L121.672 114.66ZM124.082 113.762C125.15 113.762 125.926 114.073 126.476 114.644L127.196 113.95C126.418 113.141 125.357 112.762 124.082 112.762V113.762ZM126.479 114.647C127.059 115.239 127.352 115.963 127.352 116.855H128.352C128.352 115.716 127.967 114.735 127.193 113.947L126.479 114.647ZM127.352 116.855C127.352 117.744 127.055 118.46 126.466 119.038L127.167 119.751C127.958 118.975 128.352 117.998 128.352 116.855H127.352ZM126.466 119.038C125.902 119.591 125.126 119.891 124.082 119.891V120.891C125.33 120.891 126.377 120.526 127.167 119.752L126.466 119.038ZM124.082 119.891C123.026 119.891 122.246 119.586 121.682 119.021L120.975 119.729C121.765 120.519 122.82 120.891 124.082 120.891V119.891ZM121.682 119.021C121.103 118.443 120.812 117.732 120.812 116.855H119.812C119.812 117.984 120.199 118.953 120.975 119.729L121.682 119.021Z" fill="#DE7F92" mask="url(#path-2-outside-1_502_41)"/>
<mask id="path-4-outside-2_502_41" maskUnits="userSpaceOnUse" x="37.2539" y="146.02" width="125" height="21" fill="black">
<rect fill="white" x="37.2539" y="146.02" width="125" height="21"/>
<path d="M38.3359 163.133C38.3359 162.531 38.5352 162.023 38.9336 161.609C39.332 161.188 39.8867 160.977 40.5977 160.977C41.3008 160.977 41.8516 161.184 42.25 161.598C42.6562 162.012 42.8594 162.523 42.8594 163.133C42.8594 163.742 42.6523 164.25 42.2383 164.656C41.832 165.055 41.2852 165.254 40.5977 165.254C39.9023 165.254 39.3516 165.051 38.9453 164.645C38.5391 164.238 38.3359 163.734 38.3359 163.133ZM53.418 166.484H50.3828L56.7695 147.957H59.8047L53.418 166.484ZM64.7383 152.34H71.6406V162.371H75.0742V165.02H64.7383V162.371H68.3477V155H64.7383V152.34ZM68.1133 149.094C68.1133 148.844 68.1562 148.613 68.2422 148.402C68.3359 148.184 68.4648 147.996 68.6289 147.84C68.793 147.691 68.9883 147.574 69.2148 147.488C69.4492 147.402 69.707 147.359 69.9883 147.359C70.5664 147.359 71.0234 147.523 71.3594 147.852C71.7031 148.172 71.875 148.586 71.875 149.094C71.875 149.602 71.7031 150.02 71.3594 150.348C71.0234 150.668 70.5664 150.828 69.9883 150.828C69.707 150.828 69.4492 150.785 69.2148 150.699C68.9883 150.613 68.793 150.492 68.6289 150.336C68.4648 150.188 68.3359 150.008 68.2422 149.797C68.1562 149.578 68.1133 149.344 68.1133 149.094ZM78.2852 165.02V152.34H81.2383L81.4375 154.098C81.6016 153.863 81.7812 153.648 81.9766 153.453C82.1719 153.258 82.3789 153.082 82.5977 152.926C82.9727 152.66 83.3828 152.457 83.8281 152.316C84.2734 152.176 84.7461 152.105 85.2461 152.105C85.8867 152.105 86.4727 152.199 87.0039 152.387C87.5352 152.574 87.9961 152.871 88.3867 153.277C88.7695 153.691 89.0664 154.223 89.2773 154.871C89.4961 155.512 89.6055 156.293 89.6055 157.215V165.02H86.3477V157.262C86.3477 156.762 86.2891 156.352 86.1719 156.031C86.0625 155.703 85.9023 155.445 85.6914 155.258C85.4805 155.07 85.2266 154.941 84.9297 154.871C84.6328 154.793 84.2969 154.754 83.9219 154.754C83.6094 154.754 83.3203 154.789 83.0547 154.859C82.7969 154.93 82.5664 155.035 82.3633 155.176C82.1992 155.277 82.0508 155.398 81.918 155.539C81.7852 155.68 81.6641 155.836 81.5547 156.008V165.02H78.2852ZM100.879 161.539C100.879 161.344 100.832 161.172 100.738 161.023C100.652 160.875 100.496 160.734 100.27 160.602C100.035 160.477 99.7266 160.359 99.3438 160.25C98.9609 160.141 98.4766 160.031 97.8906 159.922C97.1484 159.773 96.4688 159.59 95.8516 159.371C95.2422 159.145 94.7188 158.871 94.2812 158.551C93.8438 158.238 93.5 157.875 93.25 157.461C93.0078 157.047 92.8867 156.57 92.8867 156.031C92.8867 155.508 93.0117 155.008 93.2617 154.531C93.5117 154.055 93.8711 153.637 94.3398 153.277C94.8086 152.918 95.3789 152.633 96.0508 152.422C96.7227 152.211 97.4805 152.105 98.3242 152.105C99.207 152.105 100 152.211 100.703 152.422C101.406 152.625 102.004 152.906 102.496 153.266C102.98 153.633 103.352 154.066 103.609 154.566C103.867 155.066 103.996 155.609 103.996 156.195H100.738C100.738 155.984 100.703 155.789 100.633 155.609C100.562 155.422 100.457 155.254 100.316 155.105C100.121 154.91 99.8555 154.754 99.5195 154.637C99.1914 154.52 98.793 154.461 98.3242 154.461C97.9258 154.461 97.5781 154.5 97.2812 154.578C96.9844 154.656 96.7422 154.766 96.5547 154.906C96.3828 155.031 96.25 155.18 96.1562 155.352C96.0703 155.516 96.0273 155.691 96.0273 155.879C96.0273 156.066 96.0664 156.242 96.1445 156.406C96.2227 156.562 96.3633 156.703 96.5664 156.828C96.7617 156.961 97.0312 157.082 97.375 157.191C97.7188 157.293 98.1562 157.383 98.6875 157.461C99.4531 157.586 100.164 157.746 100.82 157.941C101.477 158.137 102.043 158.387 102.52 158.691C102.996 159.004 103.367 159.383 103.633 159.828C103.906 160.266 104.043 160.789 104.043 161.398C104.043 161.961 103.906 162.48 103.633 162.957C103.367 163.426 102.988 163.832 102.496 164.176C101.996 164.52 101.395 164.789 100.691 164.984C99.9883 165.172 99.2031 165.266 98.3359 165.266C97.3828 165.266 96.5391 165.141 95.8047 164.891C95.0781 164.641 94.4688 164.312 93.9766 163.906C93.4844 163.508 93.1094 163.055 92.8516 162.547C92.6016 162.031 92.4766 161.516 92.4766 161H95.582C95.6055 161.344 95.6992 161.641 95.8633 161.891C96.0273 162.133 96.2383 162.328 96.4961 162.477C96.7539 162.633 97.0469 162.746 97.375 162.816C97.7109 162.887 98.0547 162.922 98.4062 162.922C98.8281 162.922 99.1953 162.887 99.5078 162.816C99.8281 162.738 100.09 162.637 100.293 162.512C100.488 162.387 100.633 162.242 100.727 162.078C100.828 161.914 100.879 161.734 100.879 161.539ZM115.035 165.02C114.957 164.863 114.891 164.684 114.836 164.48C114.781 164.277 114.734 164.062 114.695 163.836C114.516 164.031 114.309 164.215 114.074 164.387C113.84 164.559 113.582 164.707 113.301 164.832C113.012 164.965 112.695 165.066 112.352 165.137C112.008 165.215 111.637 165.254 111.238 165.254C110.59 165.254 109.992 165.16 109.445 164.973C108.906 164.785 108.441 164.523 108.051 164.188C107.66 163.852 107.355 163.453 107.137 162.992C106.918 162.523 106.809 162.016 106.809 161.469C106.809 160.766 106.945 160.145 107.219 159.605C107.492 159.059 107.902 158.609 108.449 158.258C108.941 157.938 109.547 157.695 110.266 157.531C110.992 157.359 111.824 157.273 112.762 157.273H114.578V156.523C114.578 156.227 114.531 155.961 114.438 155.727C114.344 155.484 114.203 155.277 114.016 155.105C113.82 154.926 113.574 154.789 113.277 154.695C112.988 154.594 112.648 154.543 112.258 154.543C111.914 154.543 111.617 154.586 111.367 154.672C111.117 154.75 110.914 154.863 110.758 155.012C110.617 155.145 110.512 155.305 110.441 155.492C110.379 155.68 110.348 155.887 110.348 156.113H107.09C107.09 155.574 107.207 155.062 107.441 154.578C107.684 154.094 108.035 153.668 108.496 153.301C108.949 152.934 109.504 152.645 110.16 152.434C110.824 152.215 111.582 152.105 112.434 152.105C113.199 152.105 113.91 152.199 114.566 152.387C115.23 152.574 115.805 152.852 116.289 153.219C116.773 153.586 117.152 154.051 117.426 154.613C117.699 155.168 117.836 155.812 117.836 156.547V161.984C117.836 162.664 117.879 163.227 117.965 163.672C118.051 164.117 118.176 164.5 118.34 164.82V165.02H115.035ZM111.93 162.734C112.258 162.734 112.562 162.695 112.844 162.617C113.125 162.539 113.379 162.438 113.605 162.312C113.832 162.188 114.027 162.047 114.191 161.891C114.355 161.727 114.484 161.562 114.578 161.398V159.219H112.914C112.406 159.219 111.973 159.27 111.613 159.371C111.254 159.465 110.961 159.598 110.734 159.77C110.508 159.949 110.34 160.164 110.23 160.414C110.121 160.656 110.066 160.922 110.066 161.211C110.066 161.438 110.105 161.648 110.184 161.844C110.27 162.031 110.391 162.191 110.547 162.324C110.703 162.449 110.895 162.551 111.121 162.629C111.355 162.699 111.625 162.734 111.93 162.734ZM124.82 163.133C124.82 162.531 125.02 162.023 125.418 161.609C125.816 161.188 126.371 160.977 127.082 160.977C127.785 160.977 128.336 161.184 128.734 161.598C129.141 162.012 129.344 162.523 129.344 163.133C129.344 163.742 129.137 164.25 128.723 164.656C128.316 165.055 127.77 165.254 127.082 165.254C126.387 165.254 125.836 165.051 125.43 164.645C125.023 164.238 124.82 163.734 124.82 163.133ZM144.121 161.539C144.121 161.344 144.074 161.172 143.98 161.023C143.895 160.875 143.738 160.734 143.512 160.602C143.277 160.477 142.969 160.359 142.586 160.25C142.203 160.141 141.719 160.031 141.133 159.922C140.391 159.773 139.711 159.59 139.094 159.371C138.484 159.145 137.961 158.871 137.523 158.551C137.086 158.238 136.742 157.875 136.492 157.461C136.25 157.047 136.129 156.57 136.129 156.031C136.129 155.508 136.254 155.008 136.504 154.531C136.754 154.055 137.113 153.637 137.582 153.277C138.051 152.918 138.621 152.633 139.293 152.422C139.965 152.211 140.723 152.105 141.566 152.105C142.449 152.105 143.242 152.211 143.945 152.422C144.648 152.625 145.246 152.906 145.738 153.266C146.223 153.633 146.594 154.066 146.852 154.566C147.109 155.066 147.238 155.609 147.238 156.195H143.98C143.98 155.984 143.945 155.789 143.875 155.609C143.805 155.422 143.699 155.254 143.559 155.105C143.363 154.91 143.098 154.754 142.762 154.637C142.434 154.52 142.035 154.461 141.566 154.461C141.168 154.461 140.82 154.5 140.523 154.578C140.227 154.656 139.984 154.766 139.797 154.906C139.625 155.031 139.492 155.18 139.398 155.352C139.312 155.516 139.27 155.691 139.27 155.879C139.27 156.066 139.309 156.242 139.387 156.406C139.465 156.562 139.605 156.703 139.809 156.828C140.004 156.961 140.273 157.082 140.617 157.191C140.961 157.293 141.398 157.383 141.93 157.461C142.695 157.586 143.406 157.746 144.062 157.941C144.719 158.137 145.285 158.387 145.762 158.691C146.238 159.004 146.609 159.383 146.875 159.828C147.148 160.266 147.285 160.789 147.285 161.398C147.285 161.961 147.148 162.48 146.875 162.957C146.609 163.426 146.23 163.832 145.738 164.176C145.238 164.52 144.637 164.789 143.934 164.984C143.23 165.172 142.445 165.266 141.578 165.266C140.625 165.266 139.781 165.141 139.047 164.891C138.32 164.641 137.711 164.312 137.219 163.906C136.727 163.508 136.352 163.055 136.094 162.547C135.844 162.031 135.719 161.516 135.719 161H138.824C138.848 161.344 138.941 161.641 139.105 161.891C139.27 162.133 139.48 162.328 139.738 162.477C139.996 162.633 140.289 162.746 140.617 162.816C140.953 162.887 141.297 162.922 141.648 162.922C142.07 162.922 142.438 162.887 142.75 162.816C143.07 162.738 143.332 162.637 143.535 162.512C143.73 162.387 143.875 162.242 143.969 162.078C144.07 161.914 144.121 161.734 144.121 161.539ZM153.613 154.086C153.777 153.844 153.957 153.621 154.152 153.418C154.355 153.207 154.566 153.023 154.785 152.867C155.121 152.625 155.492 152.438 155.898 152.305C156.305 152.172 156.734 152.105 157.188 152.105C157.852 152.105 158.461 152.207 159.016 152.41C159.57 152.605 160.047 152.914 160.445 153.336C160.844 153.758 161.152 154.301 161.371 154.965C161.598 155.621 161.711 156.414 161.711 157.344V165.02H158.453V157.32C158.453 156.867 158.395 156.477 158.277 156.148C158.168 155.82 158.008 155.555 157.797 155.352C157.586 155.148 157.332 155 157.035 154.906C156.738 154.805 156.402 154.754 156.027 154.754C155.738 154.754 155.469 154.781 155.219 154.836C154.969 154.891 154.742 154.973 154.539 155.082C154.352 155.176 154.18 155.289 154.023 155.422C153.875 155.555 153.738 155.703 153.613 155.867V165.02H150.355V147.02H153.613V154.086Z"/>
</mask>
<path d="M38.3359 163.133C38.3359 162.531 38.5352 162.023 38.9336 161.609C39.332 161.188 39.8867 160.977 40.5977 160.977C41.3008 160.977 41.8516 161.184 42.25 161.598C42.6562 162.012 42.8594 162.523 42.8594 163.133C42.8594 163.742 42.6523 164.25 42.2383 164.656C41.832 165.055 41.2852 165.254 40.5977 165.254C39.9023 165.254 39.3516 165.051 38.9453 164.645C38.5391 164.238 38.3359 163.734 38.3359 163.133ZM53.418 166.484H50.3828L56.7695 147.957H59.8047L53.418 166.484ZM64.7383 152.34H71.6406V162.371H75.0742V165.02H64.7383V162.371H68.3477V155H64.7383V152.34ZM68.1133 149.094C68.1133 148.844 68.1562 148.613 68.2422 148.402C68.3359 148.184 68.4648 147.996 68.6289 147.84C68.793 147.691 68.9883 147.574 69.2148 147.488C69.4492 147.402 69.707 147.359 69.9883 147.359C70.5664 147.359 71.0234 147.523 71.3594 147.852C71.7031 148.172 71.875 148.586 71.875 149.094C71.875 149.602 71.7031 150.02 71.3594 150.348C71.0234 150.668 70.5664 150.828 69.9883 150.828C69.707 150.828 69.4492 150.785 69.2148 150.699C68.9883 150.613 68.793 150.492 68.6289 150.336C68.4648 150.188 68.3359 150.008 68.2422 149.797C68.1562 149.578 68.1133 149.344 68.1133 149.094ZM78.2852 165.02V152.34H81.2383L81.4375 154.098C81.6016 153.863 81.7812 153.648 81.9766 153.453C82.1719 153.258 82.3789 153.082 82.5977 152.926C82.9727 152.66 83.3828 152.457 83.8281 152.316C84.2734 152.176 84.7461 152.105 85.2461 152.105C85.8867 152.105 86.4727 152.199 87.0039 152.387C87.5352 152.574 87.9961 152.871 88.3867 153.277C88.7695 153.691 89.0664 154.223 89.2773 154.871C89.4961 155.512 89.6055 156.293 89.6055 157.215V165.02H86.3477V157.262C86.3477 156.762 86.2891 156.352 86.1719 156.031C86.0625 155.703 85.9023 155.445 85.6914 155.258C85.4805 155.07 85.2266 154.941 84.9297 154.871C84.6328 154.793 84.2969 154.754 83.9219 154.754C83.6094 154.754 83.3203 154.789 83.0547 154.859C82.7969 154.93 82.5664 155.035 82.3633 155.176C82.1992 155.277 82.0508 155.398 81.918 155.539C81.7852 155.68 81.6641 155.836 81.5547 156.008V165.02H78.2852ZM100.879 161.539C100.879 161.344 100.832 161.172 100.738 161.023C100.652 160.875 100.496 160.734 100.27 160.602C100.035 160.477 99.7266 160.359 99.3438 160.25C98.9609 160.141 98.4766 160.031 97.8906 159.922C97.1484 159.773 96.4688 159.59 95.8516 159.371C95.2422 159.145 94.7188 158.871 94.2812 158.551C93.8438 158.238 93.5 157.875 93.25 157.461C93.0078 157.047 92.8867 156.57 92.8867 156.031C92.8867 155.508 93.0117 155.008 93.2617 154.531C93.5117 154.055 93.8711 153.637 94.3398 153.277C94.8086 152.918 95.3789 152.633 96.0508 152.422C96.7227 152.211 97.4805 152.105 98.3242 152.105C99.207 152.105 100 152.211 100.703 152.422C101.406 152.625 102.004 152.906 102.496 153.266C102.98 153.633 103.352 154.066 103.609 154.566C103.867 155.066 103.996 155.609 103.996 156.195H100.738C100.738 155.984 100.703 155.789 100.633 155.609C100.562 155.422 100.457 155.254 100.316 155.105C100.121 154.91 99.8555 154.754 99.5195 154.637C99.1914 154.52 98.793 154.461 98.3242 154.461C97.9258 154.461 97.5781 154.5 97.2812 154.578C96.9844 154.656 96.7422 154.766 96.5547 154.906C96.3828 155.031 96.25 155.18 96.1562 155.352C96.0703 155.516 96.0273 155.691 96.0273 155.879C96.0273 156.066 96.0664 156.242 96.1445 156.406C96.2227 156.562 96.3633 156.703 96.5664 156.828C96.7617 156.961 97.0312 157.082 97.375 157.191C97.7188 157.293 98.1562 157.383 98.6875 157.461C99.4531 157.586 100.164 157.746 100.82 157.941C101.477 158.137 102.043 158.387 102.52 158.691C102.996 159.004 103.367 159.383 103.633 159.828C103.906 160.266 104.043 160.789 104.043 161.398C104.043 161.961 103.906 162.48 103.633 162.957C103.367 163.426 102.988 163.832 102.496 164.176C101.996 164.52 101.395 164.789 100.691 164.984C99.9883 165.172 99.2031 165.266 98.3359 165.266C97.3828 165.266 96.5391 165.141 95.8047 164.891C95.0781 164.641 94.4688 164.312 93.9766 163.906C93.4844 163.508 93.1094 163.055 92.8516 162.547C92.6016 162.031 92.4766 161.516 92.4766 161H95.582C95.6055 161.344 95.6992 161.641 95.8633 161.891C96.0273 162.133 96.2383 162.328 96.4961 162.477C96.7539 162.633 97.0469 162.746 97.375 162.816C97.7109 162.887 98.0547 162.922 98.4062 162.922C98.8281 162.922 99.1953 162.887 99.5078 162.816C99.8281 162.738 100.09 162.637 100.293 162.512C100.488 162.387 100.633 162.242 100.727 162.078C100.828 161.914 100.879 161.734 100.879 161.539ZM115.035 165.02C114.957 164.863 114.891 164.684 114.836 164.48C114.781 164.277 114.734 164.062 114.695 163.836C114.516 164.031 114.309 164.215 114.074 164.387C113.84 164.559 113.582 164.707 113.301 164.832C113.012 164.965 112.695 165.066 112.352 165.137C112.008 165.215 111.637 165.254 111.238 165.254C110.59 165.254 109.992 165.16 109.445 164.973C108.906 164.785 108.441 164.523 108.051 164.188C107.66 163.852 107.355 163.453 107.137 162.992C106.918 162.523 106.809 162.016 106.809 161.469C106.809 160.766 106.945 160.145 107.219 159.605C107.492 159.059 107.902 158.609 108.449 158.258C108.941 157.938 109.547 157.695 110.266 157.531C110.992 157.359 111.824 157.273 112.762 157.273H114.578V156.523C114.578 156.227 114.531 155.961 114.438 155.727C114.344 155.484 114.203 155.277 114.016 155.105C113.82 154.926 113.574 154.789 113.277 154.695C112.988 154.594 112.648 154.543 112.258 154.543C111.914 154.543 111.617 154.586 111.367 154.672C111.117 154.75 110.914 154.863 110.758 155.012C110.617 155.145 110.512 155.305 110.441 155.492C110.379 155.68 110.348 155.887 110.348 156.113H107.09C107.09 155.574 107.207 155.062 107.441 154.578C107.684 154.094 108.035 153.668 108.496 153.301C108.949 152.934 109.504 152.645 110.16 152.434C110.824 152.215 111.582 152.105 112.434 152.105C113.199 152.105 113.91 152.199 114.566 152.387C115.23 152.574 115.805 152.852 116.289 153.219C116.773 153.586 117.152 154.051 117.426 154.613C117.699 155.168 117.836 155.812 117.836 156.547V161.984C117.836 162.664 117.879 163.227 117.965 163.672C118.051 164.117 118.176 164.5 118.34 164.82V165.02H115.035ZM111.93 162.734C112.258 162.734 112.562 162.695 112.844 162.617C113.125 162.539 113.379 162.438 113.605 162.312C113.832 162.188 114.027 162.047 114.191 161.891C114.355 161.727 114.484 161.562 114.578 161.398V159.219H112.914C112.406 159.219 111.973 159.27 111.613 159.371C111.254 159.465 110.961 159.598 110.734 159.77C110.508 159.949 110.34 160.164 110.23 160.414C110.121 160.656 110.066 160.922 110.066 161.211C110.066 161.438 110.105 161.648 110.184 161.844C110.27 162.031 110.391 162.191 110.547 162.324C110.703 162.449 110.895 162.551 111.121 162.629C111.355 162.699 111.625 162.734 111.93 162.734ZM124.82 163.133C124.82 162.531 125.02 162.023 125.418 161.609C125.816 161.188 126.371 160.977 127.082 160.977C127.785 160.977 128.336 161.184 128.734 161.598C129.141 162.012 129.344 162.523 129.344 163.133C129.344 163.742 129.137 164.25 128.723 164.656C128.316 165.055 127.77 165.254 127.082 165.254C126.387 165.254 125.836 165.051 125.43 164.645C125.023 164.238 124.82 163.734 124.82 163.133ZM144.121 161.539C144.121 161.344 144.074 161.172 143.98 161.023C143.895 160.875 143.738 160.734 143.512 160.602C143.277 160.477 142.969 160.359 142.586 160.25C142.203 160.141 141.719 160.031 141.133 159.922C140.391 159.773 139.711 159.59 139.094 159.371C138.484 159.145 137.961 158.871 137.523 158.551C137.086 158.238 136.742 157.875 136.492 157.461C136.25 157.047 136.129 156.57 136.129 156.031C136.129 155.508 136.254 155.008 136.504 154.531C136.754 154.055 137.113 153.637 137.582 153.277C138.051 152.918 138.621 152.633 139.293 152.422C139.965 152.211 140.723 152.105 141.566 152.105C142.449 152.105 143.242 152.211 143.945 152.422C144.648 152.625 145.246 152.906 145.738 153.266C146.223 153.633 146.594 154.066 146.852 154.566C147.109 155.066 147.238 155.609 147.238 156.195H143.98C143.98 155.984 143.945 155.789 143.875 155.609C143.805 155.422 143.699 155.254 143.559 155.105C143.363 154.91 143.098 154.754 142.762 154.637C142.434 154.52 142.035 154.461 141.566 154.461C141.168 154.461 140.82 154.5 140.523 154.578C140.227 154.656 139.984 154.766 139.797 154.906C139.625 155.031 139.492 155.18 139.398 155.352C139.312 155.516 139.27 155.691 139.27 155.879C139.27 156.066 139.309 156.242 139.387 156.406C139.465 156.562 139.605 156.703 139.809 156.828C140.004 156.961 140.273 157.082 140.617 157.191C140.961 157.293 141.398 157.383 141.93 157.461C142.695 157.586 143.406 157.746 144.062 157.941C144.719 158.137 145.285 158.387 145.762 158.691C146.238 159.004 146.609 159.383 146.875 159.828C147.148 160.266 147.285 160.789 147.285 161.398C147.285 161.961 147.148 162.48 146.875 162.957C146.609 163.426 146.23 163.832 145.738 164.176C145.238 164.52 144.637 164.789 143.934 164.984C143.23 165.172 142.445 165.266 141.578 165.266C140.625 165.266 139.781 165.141 139.047 164.891C138.32 164.641 137.711 164.312 137.219 163.906C136.727 163.508 136.352 163.055 136.094 162.547C135.844 162.031 135.719 161.516 135.719 161H138.824C138.848 161.344 138.941 161.641 139.105 161.891C139.27 162.133 139.48 162.328 139.738 162.477C139.996 162.633 140.289 162.746 140.617 162.816C140.953 162.887 141.297 162.922 141.648 162.922C142.07 162.922 142.438 162.887 142.75 162.816C143.07 162.738 143.332 162.637 143.535 162.512C143.73 162.387 143.875 162.242 143.969 162.078C144.07 161.914 144.121 161.734 144.121 161.539ZM153.613 154.086C153.777 153.844 153.957 153.621 154.152 153.418C154.355 153.207 154.566 153.023 154.785 152.867C155.121 152.625 155.492 152.438 155.898 152.305C156.305 152.172 156.734 152.105 157.188 152.105C157.852 152.105 158.461 152.207 159.016 152.41C159.57 152.605 160.047 152.914 160.445 153.336C160.844 153.758 161.152 154.301 161.371 154.965C161.598 155.621 161.711 156.414 161.711 157.344V165.02H158.453V157.32C158.453 156.867 158.395 156.477 158.277 156.148C158.168 155.82 158.008 155.555 157.797 155.352C157.586 155.148 157.332 155 157.035 154.906C156.738 154.805 156.402 154.754 156.027 154.754C155.738 154.754 155.469 154.781 155.219 154.836C154.969 154.891 154.742 154.973 154.539 155.082C154.352 155.176 154.18 155.289 154.023 155.422C153.875 155.555 153.738 155.703 153.613 155.867V165.02H150.355V147.02H153.613V154.086Z" fill="#DE7F92"/>
<path d="M38.9336 161.609L39.2939 161.956L39.2971 161.953L38.9336 161.609ZM42.25 161.598L41.8897 161.944L41.8931 161.948L42.25 161.598ZM42.2383 164.656L42.5884 165.013L42.5885 165.013L42.2383 164.656ZM38.8359 163.133C38.8359 162.654 38.9896 162.272 39.2939 161.956L38.5733 161.263C38.0807 161.775 37.8359 162.409 37.8359 163.133H38.8359ZM39.2971 161.953C39.5805 161.653 39.9911 161.477 40.5977 161.477V160.477C39.7824 160.477 39.0836 160.722 38.5701 161.266L39.2971 161.953ZM40.5977 161.477C41.1974 161.477 41.6059 161.649 41.8897 161.944L42.6103 161.251C42.0972 160.718 41.4042 160.477 40.5977 160.477V161.477ZM41.8931 161.948C42.2026 162.263 42.3594 162.647 42.3594 163.133H43.3594C43.3594 162.4 43.1099 161.76 42.6069 161.247L41.8931 161.948ZM42.3594 163.133C42.3594 163.615 42.2011 163.992 41.8881 164.299L42.5885 165.013C43.1036 164.508 43.3594 163.869 43.3594 163.133H42.3594ZM41.8882 164.299C41.5943 164.588 41.1833 164.754 40.5977 164.754V165.754C41.3871 165.754 42.0698 165.522 42.5884 165.013L41.8882 164.299ZM40.5977 164.754C40.0052 164.754 39.5922 164.584 39.2989 164.291L38.5918 164.998C39.1109 165.517 39.7995 165.754 40.5977 165.754V164.754ZM39.2989 164.291C38.9912 163.983 38.8359 163.609 38.8359 163.133H37.8359C37.8359 163.86 38.0869 164.493 38.5918 164.998L39.2989 164.291ZM53.418 166.484V166.984H53.7745L53.8907 166.647L53.418 166.484ZM50.3828 166.484L49.9101 166.321L49.6816 166.984H50.3828V166.484ZM56.7695 147.957V147.457H56.413L56.2968 147.794L56.7695 147.957ZM59.8047 147.957L60.2774 148.12L60.5059 147.457H59.8047V147.957ZM53.418 165.984H50.3828V166.984H53.418V165.984ZM50.8555 166.647L57.2422 148.12L56.2968 147.794L49.9101 166.321L50.8555 166.647ZM56.7695 148.457H59.8047V147.457H56.7695V148.457ZM59.332 147.794L52.9453 166.321L53.8907 166.647L60.2774 148.12L59.332 147.794ZM64.7383 152.34V151.84H64.2383V152.34H64.7383ZM71.6406 152.34H72.1406V151.84H71.6406V152.34ZM71.6406 162.371H71.1406V162.871H71.6406V162.371ZM75.0742 162.371H75.5742V161.871H75.0742V162.371ZM75.0742 165.02V165.52H75.5742V165.02H75.0742ZM64.7383 165.02H64.2383V165.52H64.7383V165.02ZM64.7383 162.371V161.871H64.2383V162.371H64.7383ZM68.3477 162.371V162.871H68.8477V162.371H68.3477ZM68.3477 155H68.8477V154.5H68.3477V155ZM64.7383 155H64.2383V155.5H64.7383V155ZM68.2422 148.402L67.7825 148.205L67.7791 148.214L68.2422 148.402ZM68.6289 147.84L68.2933 147.469L68.2841 147.478L68.6289 147.84ZM69.2148 147.488L69.0427 147.019L69.0375 147.021L69.2148 147.488ZM71.3594 147.852L71.0099 148.209L71.0185 148.217L71.3594 147.852ZM71.3594 150.348L71.7044 150.71L71.7046 150.709L71.3594 150.348ZM69.2148 150.699L69.0375 151.167L69.0427 151.169L69.2148 150.699ZM68.6289 150.336L68.9738 149.974L68.9644 149.965L68.6289 150.336ZM68.2422 149.797L67.7768 149.98L67.7808 149.99L67.7853 150L68.2422 149.797ZM64.7383 152.84H71.6406V151.84H64.7383V152.84ZM71.1406 152.34V162.371H72.1406V152.34H71.1406ZM71.6406 162.871H75.0742V161.871H71.6406V162.871ZM74.5742 162.371V165.02H75.5742V162.371H74.5742ZM75.0742 164.52H64.7383V165.52H75.0742V164.52ZM65.2383 165.02V162.371H64.2383V165.02H65.2383ZM64.7383 162.871H68.3477V161.871H64.7383V162.871ZM68.8477 162.371V155H67.8477V162.371H68.8477ZM68.3477 154.5H64.7383V155.5H68.3477V154.5ZM65.2383 155V152.34H64.2383V155H65.2383ZM68.6133 149.094C68.6133 148.902 68.646 148.736 68.7052 148.591L67.7791 148.214C67.6665 148.49 67.6133 148.785 67.6133 149.094H68.6133ZM68.7018 148.599C68.7702 148.44 68.8612 148.309 68.9737 148.202L68.2841 147.478C68.0685 147.683 67.9017 147.928 67.7826 148.205L68.7018 148.599ZM68.9644 148.211C69.078 148.108 69.2183 148.022 69.3922 147.956L69.0375 147.021C68.7582 147.127 68.5079 147.275 68.2934 147.469L68.9644 148.211ZM69.387 147.958C69.5597 147.894 69.7584 147.859 69.9883 147.859V146.859C69.6557 146.859 69.3387 146.91 69.0427 147.019L69.387 147.958ZM69.9883 147.859C70.4678 147.859 70.7881 147.992 71.01 148.209L71.7087 147.494C71.2588 147.054 70.6651 146.859 69.9883 146.859V147.859ZM71.0185 148.217C71.252 148.435 71.375 148.712 71.375 149.094H72.375C72.375 148.46 72.1543 147.909 71.7002 147.486L71.0185 148.217ZM71.375 149.094C71.375 149.475 71.2517 149.759 71.0141 149.986L71.7046 150.709C72.1545 150.28 72.375 149.728 72.375 149.094H71.375ZM71.0143 149.986C70.7929 150.197 70.471 150.328 69.9883 150.328V151.328C70.6618 151.328 71.254 151.139 71.7044 150.71L71.0143 149.986ZM69.9883 150.328C69.7584 150.328 69.5597 150.293 69.387 150.23L69.0427 151.169C69.3387 151.277 69.6557 151.328 69.9883 151.328V150.328ZM69.3922 150.232C69.2235 150.168 69.0863 150.081 68.9737 149.974L68.2841 150.698C68.4997 150.903 68.753 151.059 69.0375 151.167L69.3922 150.232ZM68.9644 149.965C68.8543 149.866 68.7658 149.744 68.6991 149.594L67.7853 150C67.9061 150.272 68.0754 150.509 68.2934 150.707L68.9644 149.965ZM68.7076 149.614C68.6459 149.457 68.6133 149.285 68.6133 149.094H67.6133C67.6133 149.402 67.6666 149.699 67.7768 149.98L68.7076 149.614ZM78.2852 165.02H77.7852V165.52H78.2852V165.02ZM78.2852 152.34V151.84H77.7852V152.34H78.2852ZM81.2383 152.34L81.7351 152.284L81.6848 151.84H81.2383V152.34ZM81.4375 154.098L80.9407 154.154L81.0895 155.467L81.8471 154.384L81.4375 154.098ZM82.5977 152.926L82.3086 152.518L82.307 152.519L82.5977 152.926ZM88.3867 153.277L88.7539 152.938L88.7471 152.931L88.3867 153.277ZM89.2773 154.871L88.8018 155.026L88.8042 155.033L89.2773 154.871ZM89.6055 165.02V165.52H90.1055V165.02H89.6055ZM86.3477 165.02H85.8477V165.52H86.3477V165.02ZM86.1719 156.031L85.6975 156.189L85.6998 156.196L85.7023 156.203L86.1719 156.031ZM84.9297 154.871L84.8024 155.355L84.8145 155.358L84.9297 154.871ZM83.0547 154.859L82.9267 154.376L82.9231 154.377L83.0547 154.859ZM82.3633 155.176L82.6265 155.601L82.6374 155.594L82.6479 155.587L82.3633 155.176ZM81.5547 156.008L81.1329 155.739L81.0547 155.862V156.008H81.5547ZM81.5547 165.02V165.52H82.0547V165.02H81.5547ZM78.7852 165.02V152.34H77.7852V165.02H78.7852ZM78.2852 152.84H81.2383V151.84H78.2852V152.84ZM80.7415 152.396L80.9407 154.154L81.9343 154.041L81.7351 152.284L80.7415 152.396ZM81.8471 154.384C81.9951 154.173 82.1561 153.981 82.3301 153.807L81.623 153.1C81.4064 153.316 81.2081 153.554 81.0279 153.811L81.8471 154.384ZM82.3301 153.807C82.5065 153.63 82.6925 153.472 82.8883 153.333L82.307 152.519C82.0653 152.692 81.8373 152.885 81.623 153.1L82.3301 153.807ZM82.8867 153.334C83.2187 153.099 83.582 152.918 83.9787 152.793L83.6776 151.84C83.1836 151.996 82.7266 152.222 82.3086 152.518L82.8867 153.334ZM83.9787 152.793C84.372 152.669 84.7936 152.605 85.2461 152.605V151.605C84.6986 151.605 84.1749 151.683 83.6776 151.84L83.9787 152.793ZM85.2461 152.605C85.8377 152.605 86.3665 152.692 86.8375 152.858L87.1703 151.915C86.5788 151.706 85.9357 151.605 85.2461 151.605V152.605ZM86.8375 152.858C87.2952 153.02 87.6897 153.274 88.0263 153.624L88.7471 152.931C88.3025 152.468 87.7751 152.129 87.1703 151.915L86.8375 152.858ZM88.0196 153.617C88.3442 153.968 88.6087 154.432 88.8019 155.026L89.7528 154.716C89.5241 154.013 89.1949 153.415 88.7539 152.938L88.0196 153.617ZM88.8042 155.033C89 155.606 89.1055 156.329 89.1055 157.215H90.1055C90.1055 156.257 89.9922 155.417 89.7505 154.71L88.8042 155.033ZM89.1055 157.215V165.02H90.1055V157.215H89.1055ZM89.6055 164.52H86.3477V165.52H89.6055V164.52ZM86.8477 165.02V157.262H85.8477V165.02H86.8477ZM86.8477 157.262C86.8477 156.728 86.7858 156.254 86.6414 155.859L85.7023 156.203C85.7923 156.449 85.8477 156.796 85.8477 157.262H86.8477ZM86.6462 155.873C86.5154 155.481 86.3132 155.142 86.0236 154.884L85.3592 155.632C85.4915 155.749 85.6096 155.926 85.6975 156.189L86.6462 155.873ZM86.0236 154.884C85.7458 154.637 85.4156 154.472 85.0449 154.385L84.8145 155.358C85.0375 155.41 85.2151 155.503 85.3592 155.632L86.0236 154.884ZM85.0569 154.388C84.7106 154.296 84.3307 154.254 83.9219 154.254V155.254C84.263 155.254 84.5551 155.29 84.8024 155.355L85.0569 154.388ZM83.9219 154.254C83.572 154.254 83.2394 154.293 82.9267 154.376L83.1826 155.343C83.4012 155.285 83.6468 155.254 83.9219 155.254V154.254ZM82.9231 154.377C82.6151 154.461 82.3321 154.589 82.0787 154.765L82.6479 155.587C82.8007 155.481 82.9786 155.398 83.1862 155.342L82.9231 154.377ZM82.1001 154.751C81.8991 154.875 81.717 155.024 81.5545 155.196L82.2815 155.882C82.3846 155.773 82.4993 155.68 82.6265 155.601L82.1001 154.751ZM81.5545 155.196C81.3988 155.361 81.2584 155.542 81.1329 155.739L81.9765 156.276C82.0698 156.13 82.1716 155.999 82.2815 155.882L81.5545 155.196ZM81.0547 156.008V165.02H82.0547V156.008H81.0547ZM81.5547 164.52H78.2852V165.52H81.5547V164.52ZM100.738 161.023L100.306 161.274L100.31 161.282L100.316 161.29L100.738 161.023ZM100.27 160.602L100.522 160.17L100.514 160.165L100.505 160.16L100.27 160.602ZM97.8906 159.922L97.7926 160.412L97.7989 160.413L97.8906 159.922ZM95.8516 159.371L95.6773 159.84L95.6845 159.842L95.8516 159.371ZM94.2812 158.551L94.5766 158.147L94.5719 158.144L94.2812 158.551ZM93.25 157.461L92.8184 157.713L92.822 157.719L93.25 157.461ZM100.703 152.422L100.559 152.901L100.564 152.902L100.703 152.422ZM102.496 153.266L102.798 152.867L102.791 152.862L102.496 153.266ZM103.996 156.195V156.695H104.496V156.195H103.996ZM100.738 156.195H100.238V156.695H100.738V156.195ZM100.633 155.609L100.165 155.785L100.167 155.792L100.633 155.609ZM100.316 155.105L100.68 154.761L100.67 154.752L100.316 155.105ZM99.5195 154.637L99.3514 155.108L99.3548 155.109L99.5195 154.637ZM96.5547 154.906L96.8488 155.311L96.8547 155.306L96.5547 154.906ZM96.1562 155.352L95.7172 155.112L95.7133 155.12L96.1562 155.352ZM96.1445 156.406L95.693 156.621L95.6973 156.63L96.1445 156.406ZM96.5664 156.828L96.8476 156.415L96.8382 156.408L96.8285 156.402L96.5664 156.828ZM97.375 157.191L97.2234 157.668L97.2333 157.671L97.375 157.191ZM98.6875 157.461L98.7681 156.967L98.7602 156.966L98.6875 157.461ZM102.52 158.691L102.794 158.273L102.789 158.27L102.52 158.691ZM103.633 159.828L103.203 160.084L103.209 160.093L103.633 159.828ZM103.633 162.957L103.199 162.708L103.198 162.711L103.633 162.957ZM102.496 164.176L102.779 164.588L102.782 164.586L102.496 164.176ZM100.691 164.984L100.82 165.468L100.825 165.466L100.691 164.984ZM95.8047 164.891L95.642 165.363L95.6436 165.364L95.8047 164.891ZM93.9766 163.906L94.2949 163.521L94.2912 163.518L93.9766 163.906ZM92.8516 162.547L92.4016 162.765L92.4057 162.773L92.8516 162.547ZM92.4766 161V160.5H91.9766V161H92.4766ZM95.582 161L96.0809 160.966L96.0491 160.5H95.582V161ZM95.8633 161.891L95.4452 162.165L95.4493 162.171L95.8633 161.891ZM96.4961 162.477L96.7553 162.049L96.7456 162.043L96.4961 162.477ZM97.375 162.816L97.2702 163.305L97.2726 163.306L97.375 162.816ZM99.5078 162.816L99.6176 163.304L99.6263 163.302L99.5078 162.816ZM100.293 162.512L100.555 162.938L100.562 162.933L100.293 162.512ZM100.727 162.078L100.301 161.815L100.297 161.822L100.292 161.83L100.727 162.078ZM101.379 161.539C101.379 161.26 101.311 160.994 101.161 160.756L100.316 161.29C100.353 161.35 100.379 161.427 100.379 161.539H101.379ZM101.171 160.773C101.025 160.52 100.787 160.325 100.522 160.17L100.017 161.033C100.205 161.143 100.28 161.23 100.306 161.274L101.171 160.773ZM100.505 160.16C100.228 160.013 99.8828 159.884 99.4811 159.769L99.2064 160.731C99.5703 160.835 99.8423 160.94 100.034 161.043L100.505 160.16ZM99.4811 159.769C99.0779 159.654 98.5769 159.541 97.9824 159.43L97.7989 160.413C98.3762 160.521 98.844 160.627 99.2064 160.731L99.4811 159.769ZM97.9887 159.432C97.2664 159.287 96.6101 159.109 96.0186 158.9L95.6845 159.842C96.3274 160.07 97.0305 160.26 97.7926 160.412L97.9887 159.432ZM96.0258 158.902C95.4513 158.689 94.9704 158.436 94.5766 158.147L93.9859 158.954C94.4671 159.307 95.033 159.6 95.6773 159.84L96.0258 158.902ZM94.5719 158.144C94.1836 157.867 93.8891 157.552 93.678 157.203L92.822 157.719C93.1109 158.198 93.5039 158.61 93.9906 158.958L94.5719 158.144ZM93.6816 157.208C93.4895 156.88 93.3867 156.493 93.3867 156.031H92.3867C92.3867 156.648 92.5261 157.214 92.8184 157.713L93.6816 157.208ZM93.3867 156.031C93.3867 155.591 93.491 155.171 93.7045 154.764L92.8189 154.299C92.5325 154.845 92.3867 155.425 92.3867 156.031H93.3867ZM93.7045 154.764C93.9176 154.357 94.2272 153.994 94.6441 153.674L94.0356 152.881C93.515 153.28 93.1058 153.752 92.8189 154.299L93.7045 154.764ZM94.6441 153.674C95.0585 153.356 95.574 153.096 96.2006 152.899L95.901 151.945C95.1838 152.17 94.5587 152.479 94.0356 152.881L94.6441 153.674ZM96.2006 152.899C96.8155 152.706 97.5215 152.605 98.3242 152.605V151.605C97.4394 151.605 96.6298 151.716 95.901 151.945L96.2006 152.899ZM98.3242 152.605C99.1679 152.605 99.9112 152.706 100.559 152.901L100.847 151.943C100.089 151.716 99.2462 151.605 98.3242 151.605V152.605ZM100.564 152.902C101.222 153.092 101.765 153.351 102.201 153.669L102.791 152.862C102.243 152.462 101.59 152.158 100.842 151.942L100.564 152.902ZM102.194 153.664C102.624 153.99 102.944 154.367 103.165 154.796L104.054 154.337C103.759 153.766 103.337 153.276 102.798 152.867L102.194 153.664ZM103.165 154.796C103.385 155.222 103.496 155.686 103.496 156.195H104.496C104.496 155.533 104.35 154.911 104.054 154.337L103.165 154.796ZM103.996 155.695H100.738V156.695H103.996V155.695ZM101.238 156.195C101.238 155.928 101.193 155.67 101.098 155.427L100.167 155.792C100.213 155.908 100.238 156.041 100.238 156.195H101.238ZM101.101 155.434C101.007 155.182 100.865 154.957 100.679 154.762L99.9534 155.449C100.049 155.55 100.118 155.661 100.165 155.785L101.101 155.434ZM100.67 154.752C100.408 154.49 100.071 154.3 99.6842 154.165L99.3548 155.109C99.6395 155.208 99.8338 155.33 99.9629 155.459L100.67 154.752ZM99.6877 154.166C99.2906 154.024 98.8318 153.961 98.3242 153.961V154.961C98.7542 154.961 99.0923 155.015 99.3514 155.108L99.6877 154.166ZM98.3242 153.961C97.8948 153.961 97.5026 154.003 97.154 154.095L97.4085 155.062C97.6536 154.997 97.9567 154.961 98.3242 154.961V153.961ZM97.154 154.095C96.8131 154.184 96.5071 154.317 96.2547 154.506L96.8547 155.306C96.9772 155.214 97.1557 155.128 97.4085 155.062L97.154 154.095ZM96.2606 154.502C96.034 154.667 95.8495 154.87 95.7173 155.112L96.5952 155.591C96.6505 155.49 96.7316 155.396 96.8488 155.311L96.2606 154.502ZM95.7133 155.12C95.5894 155.356 95.5273 155.612 95.5273 155.879H96.5273C96.5273 155.771 96.5512 155.675 96.5992 155.584L95.7133 155.12ZM95.5273 155.879C95.5273 156.138 95.582 156.388 95.6931 156.621L96.596 156.191C96.5508 156.097 96.5273 155.994 96.5273 155.879H95.5273ZM95.6973 156.63C95.8297 156.895 96.0499 157.097 96.3044 157.254L96.8285 156.402C96.6767 156.309 96.6156 156.23 96.5917 156.183L95.6973 156.63ZM96.2853 157.242C96.5356 157.412 96.8552 157.551 97.2234 157.668L97.5266 156.715C97.2073 156.613 96.9878 156.51 96.8476 156.415L96.2853 157.242ZM97.2333 157.671C97.6078 157.782 98.0705 157.876 98.6148 157.956L98.7602 156.966C98.242 156.89 97.8297 156.804 97.5167 156.712L97.2333 157.671ZM98.6069 157.954C99.3543 158.076 100.044 158.232 100.678 158.421L100.963 157.462C100.284 157.26 99.552 157.095 98.7681 156.967L98.6069 157.954ZM100.678 158.421C101.298 158.605 101.82 158.838 102.25 159.113L102.789 158.27C102.266 157.936 101.655 157.668 100.963 157.462L100.678 158.421ZM102.245 159.11C102.665 159.385 102.98 159.71 103.203 160.084L104.062 159.572C103.754 159.055 103.327 158.623 102.794 158.273L102.245 159.11ZM103.209 160.093C103.424 160.438 103.543 160.866 103.543 161.398H104.543C104.543 160.713 104.388 160.094 104.057 159.563L103.209 160.093ZM103.543 161.398C103.543 161.876 103.428 162.309 103.199 162.708L104.066 163.206C104.384 162.652 104.543 162.046 104.543 161.398H103.543ZM103.198 162.711C102.973 163.107 102.648 163.46 102.21 163.766L102.782 164.586C103.329 164.204 103.761 163.744 104.068 163.204L103.198 162.711ZM102.213 163.764C101.767 164.071 101.218 164.319 100.558 164.503L100.825 165.466C101.571 165.259 102.226 164.969 102.779 164.588L102.213 163.764ZM100.563 164.501C99.9086 164.676 99.1677 164.766 98.3359 164.766V165.766C99.2386 165.766 100.068 165.668 100.82 165.467L100.563 164.501ZM98.3359 164.766C97.4256 164.766 96.638 164.646 95.9658 164.417L95.6436 165.364C96.4401 165.635 97.3401 165.766 98.3359 165.766V164.766ZM95.9674 164.418C95.2862 164.183 94.7325 163.882 94.2948 163.521L93.6583 164.292C94.205 164.743 94.87 165.098 95.642 165.363L95.9674 164.418ZM94.2912 163.518C93.8475 163.158 93.52 162.759 93.2974 162.321L92.4057 162.773C92.6988 163.35 93.1213 163.857 93.662 164.295L94.2912 163.518ZM93.3015 162.329C93.0807 161.873 92.9766 161.432 92.9766 161H91.9766C91.9766 161.599 92.1224 162.189 92.4017 162.765L93.3015 162.329ZM92.4766 161.5H95.582V160.5H92.4766V161.5ZM95.0832 161.034C95.1116 161.45 95.2273 161.833 95.4453 162.165L96.2813 161.616C96.1711 161.448 96.0994 161.237 96.0809 160.966L95.0832 161.034ZM95.4493 162.171C95.6567 162.477 95.9242 162.724 96.2466 162.91L96.7456 162.043C96.5523 161.932 96.398 161.789 96.2772 161.61L95.4493 162.171ZM96.2369 162.904C96.5475 163.092 96.8937 163.225 97.2702 163.305L97.4798 162.328C97.2 162.268 96.9603 162.173 96.7552 162.049L96.2369 162.904ZM97.2726 163.306C97.643 163.383 98.0211 163.422 98.4062 163.422V162.422C98.0883 162.422 97.7789 162.39 97.4774 162.327L97.2726 163.306ZM98.4062 163.422C98.8542 163.422 99.2598 163.385 99.6176 163.304L99.3981 162.329C99.1308 162.389 98.8021 162.422 98.4062 162.422V163.422ZM99.6263 163.302C99.9794 163.216 100.294 163.098 100.555 162.938L100.031 162.086C99.8856 162.175 99.6769 162.261 99.3893 162.331L99.6263 163.302ZM100.562 162.933C100.811 162.774 101.019 162.575 101.161 162.326L100.292 161.83C100.247 161.91 100.166 161.999 100.023 162.091L100.562 162.933ZM101.152 162.341C101.303 162.097 101.379 161.826 101.379 161.539H100.379C100.379 161.643 100.353 161.731 100.301 161.815L101.152 162.341ZM115.035 165.02L114.588 165.243L114.726 165.52H115.035V165.02ZM114.695 163.836L115.188 163.751L115.015 162.75L114.327 163.497L114.695 163.836ZM113.301 164.832L113.098 164.375L113.092 164.378L113.301 164.832ZM112.352 165.137L112.251 164.647L112.241 164.649L112.352 165.137ZM109.445 164.973L109.281 165.445L109.283 165.446L109.445 164.973ZM107.137 162.992L106.684 163.204L106.685 163.207L107.137 162.992ZM107.219 159.605L107.665 159.832L107.666 159.829L107.219 159.605ZM108.449 158.258L108.72 158.678L108.722 158.677L108.449 158.258ZM110.266 157.531L110.377 158.019L110.381 158.018L110.266 157.531ZM114.578 157.273V157.773H115.078V157.273H114.578ZM114.438 155.727L113.971 155.907L113.973 155.912L114.438 155.727ZM114.016 155.105L113.677 155.473L113.678 155.474L114.016 155.105ZM113.277 154.695L113.112 155.167L113.119 155.17L113.127 155.172L113.277 154.695ZM111.367 154.672L111.516 155.149L111.53 155.145L111.367 154.672ZM110.758 155.012L111.101 155.375L111.102 155.374L110.758 155.012ZM110.441 155.492L109.973 155.317L109.97 155.325L109.967 155.334L110.441 155.492ZM110.348 156.113V156.613H110.848V156.113H110.348ZM107.09 156.113H106.59V156.613H107.09V156.113ZM107.441 154.578L106.994 154.354L106.991 154.36L107.441 154.578ZM108.496 153.301L108.808 153.692L108.811 153.689L108.496 153.301ZM110.16 152.434L110.313 152.91L110.317 152.908L110.16 152.434ZM114.566 152.387L114.429 152.867L114.431 152.868L114.566 152.387ZM117.426 154.613L116.976 154.832L116.977 154.834L117.426 154.613ZM118.34 164.82H118.84V164.7L118.785 164.592L118.34 164.82ZM118.34 165.02V165.52H118.84V165.02H118.34ZM114.191 161.891L114.536 162.253L114.545 162.244L114.191 161.891ZM114.578 161.398L115.012 161.647L115.078 161.531V161.398H114.578ZM114.578 159.219H115.078V158.719H114.578V159.219ZM111.613 159.371L111.74 159.855L111.749 159.852L111.613 159.371ZM110.734 159.77L110.432 159.371L110.424 159.378L110.734 159.77ZM110.23 160.414L110.686 160.62L110.689 160.614L110.23 160.414ZM110.184 161.844L109.719 162.029L109.724 162.041L109.729 162.052L110.184 161.844ZM110.547 162.324L110.223 162.705L110.229 162.71L110.235 162.715L110.547 162.324ZM111.121 162.629L110.958 163.102L110.968 163.105L110.977 163.108L111.121 162.629ZM115.482 164.796C115.422 164.675 115.366 164.528 115.319 164.35L114.353 164.61C114.415 164.84 114.492 165.052 114.588 165.243L115.482 164.796ZM115.319 164.35C115.268 164.163 115.225 163.964 115.188 163.751L114.203 163.921C114.244 164.161 114.294 164.391 114.353 164.61L115.319 164.35ZM114.327 163.497C114.172 163.667 113.989 163.829 113.779 163.984L114.37 164.79C114.628 164.601 114.86 164.396 115.063 164.174L114.327 163.497ZM113.779 163.984C113.575 164.133 113.348 164.264 113.098 164.375L113.504 165.289C113.816 165.15 114.105 164.984 114.37 164.79L113.779 163.984ZM113.092 164.378C112.841 164.493 112.561 164.583 112.251 164.647L112.452 165.627C112.829 165.549 113.182 165.437 113.51 165.286L113.092 164.378ZM112.241 164.649C111.938 164.718 111.604 164.754 111.238 164.754V165.754C111.669 165.754 112.078 165.712 112.462 165.624L112.241 164.649ZM111.238 164.754C110.638 164.754 110.096 164.667 109.607 164.5L109.283 165.446C109.888 165.653 110.541 165.754 111.238 165.754V164.754ZM109.61 164.5C109.123 164.331 108.715 164.099 108.377 163.808L107.725 164.567C108.168 164.948 108.689 165.239 109.281 165.445L109.61 164.5ZM108.377 163.808C108.039 163.518 107.777 163.175 107.588 162.778L106.685 163.207C106.934 163.731 107.282 164.186 107.725 164.567L108.377 163.808ZM107.59 162.781C107.404 162.382 107.309 161.947 107.309 161.469H106.309C106.309 162.084 106.432 162.665 106.684 163.204L107.59 162.781ZM107.309 161.469C107.309 160.831 107.432 160.29 107.665 159.832L106.773 159.379C106.458 159.999 106.309 160.7 106.309 161.469H107.309ZM107.666 159.829C107.897 159.368 108.243 158.985 108.72 158.678L108.179 157.837C107.561 158.234 107.088 158.75 106.772 159.382L107.666 159.829ZM108.722 158.677C109.154 158.396 109.702 158.173 110.377 158.019L110.154 157.044C109.392 157.218 108.729 157.479 108.176 157.839L108.722 158.677ZM110.381 158.018C111.061 157.857 111.854 157.773 112.762 157.773V156.773C111.795 156.773 110.923 156.862 110.151 157.045L110.381 158.018ZM112.762 157.773H114.578V156.773H112.762V157.773ZM115.078 157.273V156.523H114.078V157.273H115.078ZM115.078 156.523C115.078 156.174 115.023 155.844 114.902 155.541L113.973 155.912C114.04 156.078 114.078 156.279 114.078 156.523H115.078ZM114.904 155.546C114.783 155.234 114.599 154.962 114.353 154.737L113.678 155.474C113.807 155.593 113.905 155.735 113.971 155.907L114.904 155.546ZM114.354 154.738C114.096 154.5 113.783 154.331 113.428 154.219L113.127 155.172C113.366 155.248 113.544 155.351 113.677 155.473L114.354 154.738ZM113.443 154.224C113.088 154.099 112.69 154.043 112.258 154.043V155.043C112.607 155.043 112.888 155.089 113.112 155.167L113.443 154.224ZM112.258 154.043C111.874 154.043 111.52 154.091 111.205 154.199L111.53 155.145C111.714 155.081 111.954 155.043 112.258 155.043V154.043ZM111.218 154.195C110.911 154.291 110.636 154.438 110.413 154.649L111.102 155.374C111.192 155.289 111.324 155.209 111.516 155.149L111.218 154.195ZM110.414 154.648C110.216 154.835 110.069 155.06 109.973 155.317L110.91 155.668C110.954 155.549 111.018 155.454 111.101 155.375L110.414 154.648ZM109.967 155.334C109.885 155.579 109.848 155.841 109.848 156.113H110.848C110.848 155.933 110.873 155.78 110.916 155.65L109.967 155.334ZM110.348 155.613H107.09V156.613H110.348V155.613ZM107.59 156.113C107.59 155.65 107.69 155.212 107.891 154.796L106.991 154.36C106.724 154.913 106.59 155.499 106.59 156.113H107.59ZM107.889 154.802C108.096 154.388 108.398 154.018 108.808 153.692L108.185 152.91C107.672 153.318 107.272 153.8 106.994 154.355L107.889 154.802ZM108.811 153.689C109.208 153.367 109.705 153.105 110.313 152.91L110.007 151.958C109.303 152.184 108.69 152.5 108.181 152.912L108.811 153.689ZM110.317 152.908C110.921 152.71 111.624 152.605 112.434 152.605V151.605C111.54 151.605 110.728 151.72 110.004 151.959L110.317 152.908ZM112.434 152.605C113.158 152.605 113.823 152.694 114.429 152.867L114.704 151.906C113.998 151.704 113.24 151.605 112.434 151.605V152.605ZM114.431 152.868C115.043 153.041 115.559 153.292 115.987 153.617L116.591 152.82C116.051 152.411 115.418 152.108 114.702 151.906L114.431 152.868ZM115.987 153.617C116.407 153.935 116.736 154.338 116.976 154.832L117.875 154.395C117.569 153.764 117.14 153.236 116.591 152.82L115.987 153.617ZM116.977 154.834C117.211 155.309 117.336 155.875 117.336 156.547H118.336C118.336 155.75 118.187 155.027 117.874 154.392L116.977 154.834ZM117.336 156.547V161.984H118.336V156.547H117.336ZM117.336 161.984C117.336 162.682 117.38 163.279 117.474 163.767L118.456 163.577C118.378 163.174 118.336 162.646 118.336 161.984H117.336ZM117.474 163.767C117.567 164.247 117.705 164.677 117.895 165.048L118.785 164.592C118.647 164.323 118.535 163.988 118.456 163.577L117.474 163.767ZM117.84 164.82V165.02H118.84V164.82H117.84ZM118.34 164.52H115.035V165.52H118.34V164.52ZM111.93 163.234C112.298 163.234 112.648 163.191 112.978 163.099L112.71 162.135C112.477 162.2 112.218 162.234 111.93 162.234V163.234ZM112.978 163.099C113.292 163.012 113.582 162.896 113.847 162.75L113.364 161.875C113.175 161.979 112.958 162.066 112.71 162.135L112.978 163.099ZM113.847 162.75C114.106 162.607 114.337 162.442 114.536 162.253L113.847 161.529C113.718 161.651 113.558 161.768 113.364 161.875L113.847 162.75ZM114.545 162.244C114.734 162.056 114.892 161.857 115.012 161.647L114.144 161.15C114.077 161.268 113.977 161.398 113.838 161.537L114.545 162.244ZM115.078 161.398V159.219H114.078V161.398H115.078ZM114.578 158.719H112.914V159.719H114.578V158.719ZM112.914 158.719C112.376 158.719 111.894 158.772 111.477 158.89L111.749 159.852C112.052 159.767 112.437 159.719 112.914 159.719V158.719ZM111.487 158.887C111.083 158.993 110.725 159.149 110.432 159.371L111.037 160.168C111.197 160.046 111.425 159.937 111.739 159.855L111.487 158.887ZM110.424 159.378C110.137 159.605 109.916 159.884 109.772 160.214L110.689 160.614C110.763 160.444 110.879 160.293 111.045 160.161L110.424 159.378ZM109.775 160.208C109.634 160.521 109.566 160.857 109.566 161.211H110.566C110.566 160.987 110.608 160.792 110.686 160.62L109.775 160.208ZM109.566 161.211C109.566 161.496 109.616 161.771 109.719 162.029L110.648 161.658C110.595 161.526 110.566 161.379 110.566 161.211H109.566ZM109.729 162.052C109.845 162.306 110.011 162.525 110.223 162.705L110.871 161.943C110.77 161.858 110.694 161.757 110.638 161.635L109.729 162.052ZM110.235 162.715C110.443 162.882 110.688 163.008 110.958 163.102L111.284 162.156C111.101 162.093 110.963 162.017 110.859 161.934L110.235 162.715ZM110.977 163.108C111.268 163.195 111.588 163.234 111.93 163.234V162.234C111.662 162.234 111.443 162.203 111.265 162.15L110.977 163.108ZM125.418 161.609L125.778 161.956L125.781 161.953L125.418 161.609ZM128.734 161.598L128.374 161.944L128.377 161.948L128.734 161.598ZM128.723 164.656L129.073 165.013L129.073 165.013L128.723 164.656ZM125.32 163.133C125.32 162.654 125.474 162.272 125.778 161.956L125.058 161.263C124.565 161.775 124.32 162.409 124.32 163.133H125.32ZM125.781 161.953C126.065 161.653 126.475 161.477 127.082 161.477V160.477C126.267 160.477 125.568 160.722 125.054 161.266L125.781 161.953ZM127.082 161.477C127.682 161.477 128.09 161.649 128.374 161.944L129.095 161.251C128.582 160.718 127.889 160.477 127.082 160.477V161.477ZM128.377 161.948C128.687 162.263 128.844 162.647 128.844 163.133H129.844C129.844 162.4 129.594 161.76 129.091 161.247L128.377 161.948ZM128.844 163.133C128.844 163.615 128.685 163.992 128.372 164.299L129.073 165.013C129.588 164.508 129.844 163.869 129.844 163.133H128.844ZM128.373 164.299C128.079 164.588 127.668 164.754 127.082 164.754V165.754C127.871 165.754 128.554 165.522 129.073 165.013L128.373 164.299ZM127.082 164.754C126.49 164.754 126.077 164.584 125.783 164.291L125.076 164.998C125.595 165.517 126.284 165.754 127.082 165.754V164.754ZM125.783 164.291C125.476 163.983 125.32 163.609 125.32 163.133H124.32C124.32 163.86 124.571 164.493 125.076 164.998L125.783 164.291ZM143.98 161.023L143.548 161.274L143.553 161.282L143.558 161.29L143.98 161.023ZM143.512 160.602L143.765 160.17L143.756 160.165L143.747 160.16L143.512 160.602ZM141.133 159.922L141.035 160.412L141.041 160.413L141.133 159.922ZM139.094 159.371L138.919 159.84L138.927 159.842L139.094 159.371ZM137.523 158.551L137.819 158.147L137.814 158.144L137.523 158.551ZM136.492 157.461L136.061 157.713L136.064 157.719L136.492 157.461ZM143.945 152.422L143.802 152.901L143.807 152.902L143.945 152.422ZM145.738 153.266L146.04 152.867L146.033 152.862L145.738 153.266ZM147.238 156.195V156.695H147.738V156.195H147.238ZM143.98 156.195H143.48V156.695H143.98V156.195ZM143.875 155.609L143.407 155.785L143.409 155.792L143.875 155.609ZM143.559 155.105L143.922 154.761L143.912 154.752L143.559 155.105ZM142.762 154.637L142.594 155.108L142.597 155.109L142.762 154.637ZM139.797 154.906L140.091 155.311L140.097 155.306L139.797 154.906ZM139.398 155.352L138.959 155.112L138.956 155.12L139.398 155.352ZM139.387 156.406L138.935 156.621L138.94 156.63L139.387 156.406ZM139.809 156.828L140.09 156.415L140.08 156.408L140.071 156.402L139.809 156.828ZM140.617 157.191L140.466 157.668L140.476 157.671L140.617 157.191ZM141.93 157.461L142.01 156.967L142.002 156.966L141.93 157.461ZM145.762 158.691L146.036 158.273L146.031 158.27L145.762 158.691ZM146.875 159.828L146.445 160.084L146.451 160.093L146.875 159.828ZM146.875 162.957L146.441 162.708L146.44 162.711L146.875 162.957ZM145.738 164.176L146.022 164.588L146.025 164.586L145.738 164.176ZM143.934 164.984L144.062 165.468L144.067 165.466L143.934 164.984ZM139.047 164.891L138.884 165.363L138.886 165.364L139.047 164.891ZM137.219 163.906L137.537 163.521L137.533 163.518L137.219 163.906ZM136.094 162.547L135.644 162.765L135.648 162.773L136.094 162.547ZM135.719 161V160.5H135.219V161H135.719ZM138.824 161L139.323 160.966L139.291 160.5H138.824V161ZM139.105 161.891L138.687 162.165L138.692 162.171L139.105 161.891ZM139.738 162.477L139.997 162.049L139.988 162.043L139.738 162.477ZM140.617 162.816L140.512 163.305L140.515 163.306L140.617 162.816ZM142.75 162.816L142.86 163.304L142.868 163.302L142.75 162.816ZM143.535 162.512L143.797 162.938L143.805 162.933L143.535 162.512ZM143.969 162.078L143.544 161.815L143.539 161.822L143.535 161.83L143.969 162.078ZM144.621 161.539C144.621 161.26 144.553 160.994 144.403 160.756L143.558 161.29C143.595 161.35 143.621 161.427 143.621 161.539H144.621ZM144.413 160.773C144.267 160.52 144.029 160.325 143.765 160.17L143.259 161.033C143.447 161.143 143.522 161.23 143.548 161.274L144.413 160.773ZM143.747 160.16C143.47 160.013 143.125 159.884 142.723 159.769L142.449 160.731C142.812 160.835 143.084 160.94 143.276 161.043L143.747 160.16ZM142.723 159.769C142.32 159.654 141.819 159.541 141.225 159.43L141.041 160.413C141.618 160.521 142.086 160.627 142.449 160.731L142.723 159.769ZM141.231 159.432C140.509 159.287 139.852 159.109 139.261 158.9L138.927 159.842C139.57 160.07 140.273 160.26 141.035 160.412L141.231 159.432ZM139.268 158.902C138.694 158.689 138.213 158.436 137.819 158.147L137.228 158.954C137.709 159.307 138.275 159.6 138.92 159.84L139.268 158.902ZM137.814 158.144C137.426 157.867 137.131 157.552 136.92 157.203L136.064 157.719C136.353 158.198 136.746 158.61 137.233 158.958L137.814 158.144ZM136.924 157.208C136.732 156.88 136.629 156.493 136.629 156.031H135.629C135.629 156.648 135.768 157.214 136.061 157.713L136.924 157.208ZM136.629 156.031C136.629 155.591 136.733 155.171 136.947 154.764L136.061 154.299C135.775 154.845 135.629 155.425 135.629 156.031H136.629ZM136.947 154.764C137.16 154.357 137.469 153.994 137.886 153.674L137.278 152.881C136.757 153.28 136.348 153.752 136.061 154.299L136.947 154.764ZM137.886 153.674C138.301 153.356 138.816 153.096 139.443 152.899L139.143 151.945C138.426 152.17 137.801 152.479 137.278 152.881L137.886 153.674ZM139.443 152.899C140.058 152.706 140.764 152.605 141.566 152.605V151.605C140.682 151.605 139.872 151.716 139.143 151.945L139.443 152.899ZM141.566 152.605C142.41 152.605 143.153 152.706 143.802 152.901L144.089 151.943C143.331 151.716 142.488 151.605 141.566 151.605V152.605ZM143.807 152.902C144.465 153.092 145.007 153.351 145.443 153.669L146.033 152.862C145.485 152.462 144.832 152.158 144.084 151.942L143.807 152.902ZM145.436 153.664C145.866 153.99 146.186 154.367 146.407 154.796L147.296 154.337C147.001 153.766 146.579 153.276 146.04 152.867L145.436 153.664ZM146.407 154.796C146.627 155.222 146.738 155.686 146.738 156.195H147.738C147.738 155.533 147.592 154.911 147.296 154.337L146.407 154.796ZM147.238 155.695H143.98V156.695H147.238V155.695ZM144.48 156.195C144.48 155.928 144.436 155.67 144.341 155.427L143.409 155.792C143.455 155.908 143.48 156.041 143.48 156.195H144.48ZM144.343 155.434C144.249 155.182 144.107 154.957 143.922 154.762L143.196 155.449C143.291 155.55 143.36 155.661 143.407 155.785L144.343 155.434ZM143.912 154.752C143.651 154.49 143.314 154.3 142.926 154.165L142.597 155.109C142.882 155.208 143.076 155.33 143.205 155.459L143.912 154.752ZM142.93 154.166C142.533 154.024 142.074 153.961 141.566 153.961V154.961C141.996 154.961 142.334 155.015 142.594 155.108L142.93 154.166ZM141.566 153.961C141.137 153.961 140.745 154.003 140.396 154.095L140.651 155.062C140.896 154.997 141.199 154.961 141.566 154.961V153.961ZM140.396 154.095C140.055 154.184 139.749 154.317 139.497 154.506L140.097 155.306C140.219 155.214 140.398 155.128 140.651 155.062L140.396 154.095ZM139.503 154.502C139.276 154.667 139.092 154.87 138.959 155.112L139.837 155.591C139.893 155.49 139.974 155.396 140.091 155.311L139.503 154.502ZM138.956 155.12C138.832 155.356 138.77 155.612 138.77 155.879H139.77C139.77 155.771 139.793 155.675 139.841 155.584L138.956 155.12ZM138.77 155.879C138.77 156.138 138.824 156.388 138.935 156.621L139.838 156.191C139.793 156.097 139.77 155.994 139.77 155.879H138.77ZM138.94 156.63C139.072 156.895 139.292 157.097 139.547 157.254L140.071 156.402C139.919 156.309 139.858 156.23 139.834 156.183L138.94 156.63ZM139.527 157.242C139.778 157.412 140.097 157.551 140.466 157.668L140.769 156.715C140.45 156.613 140.23 156.51 140.09 156.415L139.527 157.242ZM140.476 157.671C140.85 157.782 141.313 157.876 141.857 157.956L142.002 156.966C141.484 156.89 141.072 156.804 140.759 156.712L140.476 157.671ZM141.849 157.954C142.596 158.076 143.286 158.232 143.92 158.421L144.205 157.462C143.526 157.26 142.794 157.095 142.01 156.967L141.849 157.954ZM143.92 158.421C144.54 158.605 145.062 158.838 145.492 159.113L146.031 158.27C145.508 157.936 144.897 157.668 144.205 157.462L143.92 158.421ZM145.488 159.11C145.907 159.385 146.222 159.71 146.446 160.084L147.304 159.572C146.996 159.055 146.569 158.623 146.036 158.273L145.488 159.11ZM146.451 160.093C146.666 160.438 146.785 160.866 146.785 161.398H147.785C147.785 160.713 147.63 160.094 147.299 159.563L146.451 160.093ZM146.785 161.398C146.785 161.876 146.67 162.309 146.441 162.708L147.309 163.206C147.627 162.652 147.785 162.046 147.785 161.398H146.785ZM146.44 162.711C146.215 163.107 145.89 163.46 145.452 163.766L146.025 164.586C146.571 164.204 147.004 163.744 147.31 163.204L146.44 162.711ZM145.455 163.764C145.009 164.071 144.46 164.319 143.8 164.503L144.067 165.466C144.813 165.259 145.468 164.969 146.022 164.588L145.455 163.764ZM143.805 164.501C143.151 164.676 142.41 164.766 141.578 164.766V165.766C142.481 165.766 143.31 165.668 144.062 165.467L143.805 164.501ZM141.578 164.766C140.668 164.766 139.88 164.646 139.208 164.417L138.886 165.364C139.682 165.635 140.582 165.766 141.578 165.766V164.766ZM139.21 164.418C138.528 164.183 137.975 163.882 137.537 163.521L136.9 164.292C137.447 164.743 138.112 165.098 138.884 165.363L139.21 164.418ZM137.533 163.518C137.09 163.158 136.762 162.759 136.54 162.321L135.648 162.773C135.941 163.35 136.363 163.857 136.904 164.295L137.533 163.518ZM136.544 162.329C136.323 161.873 136.219 161.432 136.219 161H135.219C135.219 161.599 135.365 162.189 135.644 162.765L136.544 162.329ZM135.719 161.5H138.824V160.5H135.719V161.5ZM138.325 161.034C138.354 161.45 138.469 161.833 138.687 162.165L139.523 161.616C139.413 161.448 139.342 161.237 139.323 160.966L138.325 161.034ZM138.692 162.171C138.899 162.477 139.166 162.724 139.489 162.91L139.988 162.043C139.795 161.932 139.64 161.789 139.519 161.61L138.692 162.171ZM139.479 162.904C139.79 163.092 140.136 163.225 140.512 163.305L140.722 162.328C140.442 162.268 140.202 162.173 139.997 162.049L139.479 162.904ZM140.515 163.306C140.885 163.383 141.263 163.422 141.648 163.422V162.422C141.33 162.422 141.021 162.39 140.72 162.327L140.515 163.306ZM141.648 163.422C142.096 163.422 142.502 163.385 142.86 163.304L142.64 162.329C142.373 162.389 142.044 162.422 141.648 162.422V163.422ZM142.868 163.302C143.222 163.216 143.536 163.098 143.797 162.938L143.273 162.086C143.128 162.175 142.919 162.261 142.632 162.331L142.868 163.302ZM143.805 162.933C144.053 162.774 144.261 162.575 144.403 162.326L143.535 161.83C143.489 161.91 143.408 161.999 143.266 162.091L143.805 162.933ZM144.394 162.341C144.545 162.097 144.621 161.826 144.621 161.539H143.621C143.621 161.643 143.596 161.731 143.544 161.815L144.394 162.341ZM153.613 154.086H153.113V155.716L154.027 154.366L153.613 154.086ZM154.152 153.418L153.792 153.071L153.792 153.071L154.152 153.418ZM154.785 152.867L155.076 153.274L155.078 153.273L154.785 152.867ZM159.016 152.41L158.844 152.88L158.85 152.882L159.016 152.41ZM161.371 154.965L160.896 155.121L160.898 155.128L161.371 154.965ZM161.711 165.02V165.52H162.211V165.02H161.711ZM158.453 165.02H157.953V165.52H158.453V165.02ZM158.277 156.148L157.803 156.307L157.806 156.317L158.277 156.148ZM157.035 154.906L156.873 155.379L156.885 155.383L157.035 154.906ZM154.539 155.082L154.763 155.529L154.769 155.526L154.776 155.522L154.539 155.082ZM154.023 155.422L153.7 155.041L153.69 155.049L154.023 155.422ZM153.613 155.867L153.216 155.564L153.113 155.698V155.867H153.613ZM153.613 165.02V165.52H154.113V165.02H153.613ZM150.355 165.02H149.855V165.52H150.355V165.02ZM150.355 147.02V146.52H149.855V147.02H150.355ZM153.613 147.02H154.113V146.52H153.613V147.02ZM154.027 154.366C154.176 154.147 154.338 153.946 154.513 153.765L153.792 153.071C153.576 153.296 153.379 153.541 153.199 153.806L154.027 154.366ZM154.513 153.765C154.696 153.574 154.884 153.411 155.076 153.274L154.495 152.46C154.249 152.636 154.015 152.84 153.792 153.071L154.513 153.765ZM155.078 153.273C155.37 153.062 155.695 152.897 156.054 152.78L155.743 151.829C155.289 151.978 154.872 152.188 154.493 152.462L155.078 153.273ZM156.054 152.78C156.407 152.664 156.784 152.605 157.188 152.605V151.605C156.685 151.605 156.202 151.679 155.743 151.829L156.054 152.78ZM157.188 152.605C157.8 152.605 158.35 152.699 158.844 152.88L159.188 151.941C158.571 151.715 157.903 151.605 157.188 151.605V152.605ZM158.85 152.882C159.33 153.051 159.739 153.316 160.082 153.679L160.809 152.993C160.355 152.512 159.81 152.16 159.182 151.939L158.85 152.882ZM160.082 153.679C160.421 154.038 160.696 154.513 160.896 155.121L161.846 154.808C161.609 154.089 161.267 153.478 160.809 152.993L160.082 153.679ZM160.898 155.128C161.102 155.717 161.211 156.452 161.211 157.344H162.211C162.211 156.376 162.093 155.525 161.844 154.802L160.898 155.128ZM161.211 157.344V165.02H162.211V157.344H161.211ZM161.711 164.52H158.453V165.52H161.711V164.52ZM158.953 165.02V157.32H157.953V165.02H158.953ZM158.953 157.32C158.953 156.826 158.889 156.376 158.748 155.98L157.806 156.317C157.9 156.577 157.953 156.908 157.953 157.32H158.953ZM158.752 155.99C158.621 155.599 158.423 155.26 158.144 154.991L157.45 155.712C157.593 155.849 157.715 156.041 157.803 156.307L158.752 155.99ZM158.144 154.991C157.874 154.731 157.551 154.545 157.186 154.429L156.885 155.383C157.113 155.455 157.298 155.565 157.45 155.712L158.144 154.991ZM157.197 154.433C156.839 154.311 156.447 154.254 156.027 154.254V155.254C156.358 155.254 156.638 155.299 156.873 155.379L157.197 154.433ZM156.027 154.254C155.707 154.254 155.401 154.284 155.112 154.347L155.326 155.324C155.536 155.278 155.77 155.254 156.027 155.254V154.254ZM155.112 154.347C154.821 154.411 154.55 154.508 154.302 154.642L154.776 155.522C154.934 155.437 155.116 155.37 155.326 155.324L155.112 154.347ZM154.315 154.635C154.093 154.746 153.887 154.881 153.7 155.041L154.347 155.803C154.472 155.697 154.61 155.605 154.763 155.529L154.315 154.635ZM153.69 155.049C153.517 155.204 153.359 155.376 153.216 155.564L154.011 156.17C154.117 156.03 154.233 155.905 154.357 155.794L153.69 155.049ZM153.113 155.867V165.02H154.113V155.867H153.113ZM153.613 164.52H150.355V165.52H153.613V164.52ZM150.855 165.02V147.02H149.855V165.02H150.855ZM150.355 147.52H153.613V146.52H150.355V147.52ZM153.113 147.02V154.086H154.113V147.02H153.113Z" fill="#DE7F92" mask="url(#path-4-outside-2_502_41)"/>
</svg>
